<svg xmlns="http://www.w3.org/2000/svg" viewBox="0 0 64 64" fill="none">
  <!-- Background -->
  <rect width="64" height="64" rx="8" fill="#FEE2E2"/>
  <!-- Entity box 1 (top left) -->
  <rect x="8" y="10" width="20" height="16" rx="2" stroke="#78716C" stroke-width="1.5" fill="none"/>
  <line x1="8" y1="16" x2="28" y2="16" stroke="#78716C" stroke-width="1"/>
  <rect x="11" y="19" width="14" height="2" rx="0.5" fill="#DC2626" opacity="0.6"/>
  <rect x="11" y="23" width="10" height="2" rx="0.5" fill="#DC2626" opacity="0.4"/>

  <!-- Entity box 2 (top right) -->
  <rect x="36" y="10" width="20" height="16" rx="2" stroke="#78716C" stroke-width="1.5" fill="none"/>
  <line x1="36" y1="16" x2="56" y2="16" stroke="#78716C" stroke-width="1"/>
  <rect x="39" y="19" width="14" height="2" rx="0.5" fill="#DC2626" opacity="0.6"/>
  <rect x="39" y="23" width="8" height="2" rx="0.5" fill="#DC2626" opacity="0.4"/>

  <!-- Entity box 3 (bottom center) -->
  <rect x="22" y="38" width="20" height="16" rx="2" stroke="#78716C" stroke-width="1.5" fill="none"/>
  <line x1="22" y1="44" x2="42" y2="44" stroke="#78716C" stroke-width="1"/>
  <rect x="25" y="47" width="14" height="2" rx="0.5" fill="#DC2626" opacity="0.6"/>
  <rect x="25" y="51" width="12" height="2" rx="0.5" fill="#DC2626" opacity="0.4"/>

  <!-- Connection lines -->
  <path d="M28 18 L32 18 L32 38" stroke="#78716C" stroke-width="1.5" fill="none"/>
  <path d="M36 18 L32 18" stroke="#78716C" stroke-width="1.5" fill="none"/>

  <!-- Relationship diamonds -->
  <polygon points="32,30 35,33 32,36 29,33" fill="#DC2626"/>
</svg>
