<svg xmlns="http://www.w3.org/2000/svg" viewBox="0 0 64 64" fill="none">
  <!-- Background -->
  <rect width="64" height="64" rx="8" fill="#FEE2E2"/>
  <!-- Category folders grid with todo checkmarks -->
  <rect x="8" y="8" width="22" height="22" rx="3" stroke="#78716C" stroke-width="2" fill="none"/>
  <path d="M12 14h6c1 0 1.5.5 2 1l1 1h7" stroke="#78716C" stroke-width="1.5" fill="none"/>
  <rect x="12" y="22" width="4" height="4" rx="1" fill="#DC2626"/>
  <path d="M18 22l1.5 1.5 3-3" stroke="#DC2626" stroke-width="1.2" stroke-linecap="round" stroke-linejoin="round" fill="none"/>

  <rect x="34" y="8" width="22" height="22" rx="3" stroke="#78716C" stroke-width="2" fill="none"/>
  <path d="M38 14h6c1 0 1.5.5 2 1l1 1h7" stroke="#78716C" stroke-width="1.5" fill="none"/>
  <rect x="38" y="22" width="4" height="4" rx="1" fill="#DC2626" opacity="0.7"/>
  <path d="M44 22l1.5 1.5 3-3" stroke="#DC2626" stroke-width="1.2" stroke-linecap="round" stroke-linejoin="round" fill="none" opacity="0.7"/>

  <rect x="8" y="34" width="22" height="22" rx="3" stroke="#78716C" stroke-width="2" fill="none"/>
  <path d="M12 40h6c1 0 1.5.5 2 1l1 1h7" stroke="#78716C" stroke-width="1.5" fill="none"/>
  <rect x="12" y="48" width="4" height="4" rx="1" fill="#DC2626" opacity="0.5"/>

  <rect x="34" y="34" width="22" height="22" rx="3" stroke="#78716C" stroke-width="2" fill="none"/>
  <path d="M38 40h6c1 0 1.5.5 2 1l1 1h7" stroke="#78716C" stroke-width="1.5" fill="none"/>
  <rect x="38" y="48" width="4" height="4" rx="1" fill="#DC2626" opacity="0.3"/>
</svg>
