<svg xmlns="http://www.w3.org/2000/svg" viewBox="0 0 24 24" fill="none">
  <style>
    .bg { fill: var(--neutral-layer-1, #fafafa); }
    .nf { fill: currentColor; }
  </style>
  <rect class="bg" width="24" height="24" rx="4"/>
  <!-- Nest outer arc -->
  <path class="nf" d="M3.2 14 C3.2 14 3.2 21.2 12 21.2 C20.8 21.2 20.8 14 20.8 14 L20 14 C20 14 20 20 12 20 C4 20 4 14 4 14 Z" fill-rule="evenodd"/>
  <!-- Nest inner arc -->
  <path class="nf" d="M5.4 14 C5.4 14 5.4 18.6 12 18.6 C18.6 18.6 18.6 14 18.6 14 L18 14 C18 14 18 18 12 18 C6 18 6 14 6 14 Z" opacity="0.5" fill-rule="evenodd"/>
  <!-- Bird left -->
  <path class="nf" d="M7.4 8.5 L8.6 8.5 L9 6.8 L9.4 8.5 L10.6 8.5 L10 7.2 L9 5.2 L8 7.2 Z"/>
  <!-- Bird center -->
  <path class="nf" d="M10.4 6.5 L11.6 6.5 L12 4.8 L12.4 6.5 L13.6 6.5 L13 5.2 L12 3.2 L11 5.2 Z"/>
  <!-- Bird right -->
  <path class="nf" d="M13.4 8.5 L14.6 8.5 L15 6.8 L15.4 8.5 L16.6 8.5 L16 7.2 L15 5.2 L14 7.2 Z"/>
</svg>
