<svg width="16" height="16" viewBox="0 0 16 16" fill="none" xmlns="http://www.w3.org/2000/svg">
<path d="M8 15C11.866 15 15 11.866 15 8C15 4.13401 11.866 1 8 1C4.13401 1 1 4.13401 1 8C1 11.866 4.13401 15 8 15Z" stroke="#292B36" stroke-width="2" stroke-linecap="round" stroke-linejoin="round"/>
<path fill-rule="evenodd" clip-rule="evenodd" d="M8.00024 6C8.55253 6 9.00024 5.55229 9.00024 5C9.00024 4.44772 8.55253 4 8.00024 4C7.44796 4 7.00024 4.44772 7.00024 5C7.00024 5.55229 7.44796 6 8.00024 6ZM9.00024 8C9.00024 7.44771 8.55253 7 8.00024 7C7.44796 7 7.00024 7.44771 7.00024 8V11C7.00024 11.5523 7.44796 12 8.00024 12C8.55253 12 9.00024 11.5523 9.00024 11V8Z" fill="#292B36"/>
</svg>
