<svg width="24" height="24" viewBox="0 0 24 24" fill="none" xmlns="http://www.w3.org/2000/svg">
<path d="M17 9.25C17 7.92392 16.4732 6.65215 15.5355 5.71447C14.5979 4.77678 13.3261 4.25 12 4.25C10.6739 4.25 9.40215 4.77678 8.46447 5.71447C7.52678 6.65215 7 7.92392 7 9.25C7 15.0833 4.5 16.75 4.5 16.75H19.5C19.5 16.75 17 15.0833 17 9.25Z" stroke="#292B36" stroke-width="2" stroke-linecap="round" stroke-linejoin="round"/>
<path d="M13.4417 20.0833C13.2952 20.3359 13.0849 20.5455 12.8319 20.6913C12.5789 20.837 12.292 20.9137 12 20.9137C11.708 20.9137 11.4212 20.837 11.1682 20.6913C10.9151 20.5455 10.7049 20.3359 10.5583 20.0833" stroke="#292B36" stroke-width="2" stroke-linecap="round" stroke-linejoin="round"/>
</svg>
