<svg width="16" height="16" viewBox="0 0 16 16" fill="none" xmlns="http://www.w3.org/2000/svg">
<path d="M11.3333 5.2C11.3333 4.35131 10.9821 3.53737 10.357 2.93726C9.7319 2.33714 8.88406 2 8 2C7.11595 2 6.2681 2.33714 5.64298 2.93726C5.01786 3.53737 4.66667 4.35131 4.66667 5.2C4.66667 8.93333 3 10 3 10H13C13 10 11.3333 8.93333 11.3333 5.2Z" stroke="#292B36" stroke-width="2" stroke-linecap="round" stroke-linejoin="round"/>
<path d="M9 13C8.89838 13.1521 8.75251 13.2783 8.57701 13.3661C8.40151 13.4538 8.20253 13.5 8 13.5C7.79747 13.5 7.59849 13.4538 7.42299 13.3661C7.24749 13.2783 7.10162 13.1521 7 13" stroke="#292B36" stroke-width="2" stroke-linecap="round" stroke-linejoin="round"/>
</svg>
