<svg width="24" height="24" viewBox="0 0 24 24" fill="none" xmlns="http://www.w3.org/2000/svg">
<path d="M20.9999 4.99762V9.99762H16" stroke="#292B36" stroke-width="2" stroke-linecap="round" stroke-linejoin="round"/>
<path d="M3 18.9981V13.9981H8" stroke="#292B36" stroke-width="2" stroke-linecap="round" stroke-linejoin="round"/>
<path d="M5 8.99762C5.41496 7.82499 6.17384 6.68612 7.10356 5.85977C8.03329 5.03342 9.1572 4.45605 10.3704 4.18155C11.5836 3.90704 12.8466 3.94434 14.0415 4.28997C15.2364 4.6356 16.3243 5.27828 17.2036 6.15806L21 9.99762" stroke="#292B36" stroke-width="2" stroke-linecap="round" stroke-linejoin="round"/>
<path d="M19 14.998C18.585 16.1711 17.8262 17.3104 16.8964 18.1371C15.9667 18.9638 14.8428 19.5414 13.6296 19.816C12.4164 20.0906 11.1534 20.0533 9.95848 19.7075C8.76358 19.3618 7.6757 18.7188 6.79636 17.8387L3 13.9976" stroke="#292B36" stroke-width="2" stroke-linecap="round" stroke-linejoin="round"/>
</svg>
