<svg width="16" height="16" viewBox="0 0 16 16" fill="none" xmlns="http://www.w3.org/2000/svg">
<path d="M11 14V12.6667C11 11.9594 10.699 11.2811 10.1632 10.781C9.62734 10.281 8.90062 10 8.14286 10H3.85714C3.09938 10 2.37266 10.281 1.83684 10.781C1.30102 11.2811 1 11.9594 1 12.6667V14" stroke="#292B36" stroke-width="2" stroke-linecap="round" stroke-linejoin="round"/>
<path d="M15 14V12.6667C15 11.9594 14.699 11.2811 14.1632 10.781C13.8349 10.4746 13.4349 10.2505 13 10.1228" stroke="#292B36" stroke-width="2" stroke-linecap="round" stroke-linejoin="round"/>
<path d="M6 7C7.65685 7 9 5.65685 9 4C9 2.34315 7.65685 1 6 1C4.34315 1 3 2.34315 3 4C3 5.65685 4.34315 7 6 7Z" stroke="#292B36" stroke-width="2" stroke-linecap="round" stroke-linejoin="round"/>
<path d="M11.5 1.40137C12.3967 1.92008 13 2.8896 13 4.00002C13 5.11044 12.3967 6.07996 11.5 6.59867" stroke="#292B36" stroke-width="2" stroke-linecap="round" stroke-linejoin="round"/>
</svg>
