<svg width="142" height="171" viewBox="0 0 142 171" fill="none" xmlns="http://www.w3.org/2000/svg">
<path d="M27 67H78M92 67H107M27 79H90M27 98H96M27 110H81M102 5V32C102 36.4183 105.582 40 110 40H137M27 20H60M27 36H70M23 151V145M39 151V145M55 151V145M71 151V145M87 151V145M103 151V145M119 151V145M4 12V159C4 163.418 7.58172 167 12 167H130C134.418 167 138 163.418 138 159V43.3137C138 41.192 137.157 39.1571 135.657 37.6569L104.343 6.34315C102.843 4.84285 100.808 4 98.6863 4H12C7.58172 4 4 7.58173 4 12Z" stroke="#80B8FF" stroke-width="8" stroke-linecap="round"/>
</svg>
