<svg width="143" height="24" viewBox="0 0 143 24" fill="none" xmlns="http://www.w3.org/2000/svg">
<path fill-rule="evenodd" clip-rule="evenodd" d="M8.06478 21.5302C4.00042 21.5302 4.3295 18.1548 5.18286 14.0064C7.73787 17.5002 9.97965 21.5302 8.06478 21.5302ZM5.18286 14.0064C5.27518 13.5576 5.37364 13.0997 5.47333 12.6362C6.5119 7.8066 7.68473 2.35275 3.45292 0C-1.94664 5.51122 -0.108412 7.65526 2.84599 11.1012C3.46408 11.8221 4.13104 12.6 4.79079 13.4776C4.92195 13.6521 5.05281 13.8285 5.18286 14.0064ZM15.709 15.2496C15.1676 17.8062 17.9588 21.8816 17.9588 21.8816C12.3648 21.8816 8.88865 18.2154 7.63341 14.618C5.43662 7.98503 14.2711 0.036299 19.8651 0.036299C19.8651 0.036299 19.1889 10.2663 15.709 15.2496ZM61.2115 19.5554C62.1052 19.5554 62.9127 19.3751 63.6339 19.0145L63.9396 16.7332C63.3281 17.1095 62.7324 17.2977 62.1523 17.2977C61.3683 17.2977 60.9764 16.843 60.9764 15.9336V9.37218H63.822V7.25557H60.9764V2.29332L58.5305 3.46921V7.25557H56.6726V9.37218H58.5305V16.5686C58.5305 18.5598 59.4242 19.5554 61.2115 19.5554ZM27.6828 19.5552C29.0782 19.5552 30.1796 19.2534 30.9871 18.6498C31.7945 18.0461 32.1982 17.1799 32.1982 16.051C32.1982 15.0163 31.8808 14.1931 31.2458 13.5817C30.6108 12.9702 29.6113 12.4371 28.2473 11.9825C27.432 11.6689 26.8401 11.3984 26.4717 11.1711C26.1032 10.9438 25.919 10.6498 25.919 10.2892C25.919 9.94426 26.0719 9.6738 26.3776 9.47782C26.6833 9.28184 27.0949 9.18385 27.6123 9.18385C28.6 9.18385 29.4153 9.52094 30.0581 10.1951L31.822 8.78405C30.8185 7.5768 29.4153 6.97318 27.6123 6.97318C26.405 6.97318 25.4055 7.26715 24.6138 7.8551C23.822 8.44304 23.4261 9.2544 23.4261 10.2892C23.4261 11.2299 23.7358 11.9981 24.3551 12.5939C24.9744 13.1897 25.9425 13.7071 27.2595 14.1461C27.8553 14.3813 28.2864 14.5577 28.553 14.6753C28.8195 14.7928 29.0861 14.9771 29.3526 15.2279C29.6191 15.4788 29.7524 15.7532 29.7524 16.051C29.7524 16.9134 29.0469 17.3445 27.6358 17.3445C26.6637 17.3445 25.7465 16.9369 24.8842 16.1216L23.1439 17.6032C23.5672 18.199 24.1944 18.6733 25.0253 19.026C25.8563 19.3788 26.7421 19.5552 27.6828 19.5552ZM38.6788 23.8354L45.0286 7.25532H42.5827L39.596 15.1103C39.4549 15.4709 39.3451 15.8236 39.2667 16.1686C39.1883 15.8236 39.0786 15.4709 38.9375 15.1103L35.9742 7.25532H33.5519L38.0438 19.0613L36.1859 23.8354H38.6788ZM53.9902 18.6498C53.1828 19.2534 52.0814 19.5552 50.686 19.5552C49.7453 19.5552 48.8594 19.3788 48.0285 19.026C47.1975 18.6733 46.5704 18.199 46.147 17.6032L47.8873 16.1216C48.7497 16.9369 49.6669 17.3445 50.6389 17.3445C52.05 17.3445 52.7555 16.9134 52.7555 16.051C52.7555 15.7532 52.6223 15.4788 52.3557 15.2279C52.0892 14.9771 51.8227 14.7928 51.5561 14.6753C51.2896 14.5577 50.8584 14.3813 50.2626 14.1461C48.9456 13.7071 47.9775 13.1897 47.3582 12.5939C46.7389 11.9981 46.4292 11.2299 46.4292 10.2892C46.4292 9.2544 46.8251 8.44304 47.6169 7.8551C48.4087 7.26715 49.4082 6.97318 50.6154 6.97318C52.4184 6.97318 53.8217 7.5768 54.8251 8.78405L53.0613 10.1951C52.4184 9.52094 51.6032 9.18385 50.6154 9.18385C50.098 9.18385 49.6865 9.28184 49.3807 9.47782C49.075 9.6738 48.9221 9.94426 48.9221 10.2892C48.9221 10.6498 49.1064 10.9438 49.4748 11.1711C49.8432 11.3984 50.4351 11.6689 51.2504 11.9825C52.6144 12.4371 53.6139 12.9702 54.2489 13.5817C54.8839 14.1931 55.2014 15.0163 55.2014 16.051C55.2014 17.1799 54.7977 18.0461 53.9902 18.6498ZM74.9826 17.8149C74.0105 18.9751 72.6386 19.5552 70.867 19.5552C69.1894 19.5552 67.8606 18.9947 66.8807 17.8737C65.9008 16.7527 65.4108 15.2122 65.4108 13.2524C65.4108 11.2926 65.9047 9.75612 66.8925 8.64294C67.8802 7.52977 69.205 6.97318 70.867 6.97318C72.3721 6.97318 73.6107 7.45137 74.5828 8.40776C75.5548 9.36415 76.0409 10.7595 76.0409 12.5939C76.0409 13.2681 76.0095 13.7933 75.9468 14.1696H67.8567C67.8724 15.126 68.182 15.9021 68.7856 16.4979C69.3893 17.0937 70.0909 17.3916 70.8905 17.3916C71.9253 17.3916 72.7562 16.9839 73.3834 16.1686L74.9826 17.8149ZM73.595 12.1944H67.8567C67.9194 11.1439 68.2291 10.3718 68.7856 9.87788C69.3422 9.38401 70.036 9.13707 70.867 9.13707C71.6039 9.13707 72.2388 9.38793 72.7719 9.88964C73.305 10.3914 73.5794 11.1596 73.595 12.1944ZM80.8987 12.1941V19.273H78.4528V7.25539H80.8987V8.36073C81.5415 7.4357 82.5528 6.97318 83.9325 6.97318C85.4219 6.97318 86.4881 7.54544 87.1309 8.68998C87.8678 7.54544 89.0515 6.97318 90.6821 6.97318C91.9834 6.97318 93.0299 7.34946 93.8217 8.10203C94.6135 8.8546 95.0093 9.99129 95.0093 11.5121V19.273H92.5635V12.0765C92.5635 10.2108 91.8266 9.27792 90.3528 9.27792C89.663 9.27792 89.0907 9.5327 88.636 10.0422C88.1813 10.5518 87.954 11.2691 87.954 12.1941V19.273H85.5082V12.0765C85.5082 10.2108 84.7713 9.27792 83.2975 9.27792C82.6076 9.27792 82.0354 9.5327 81.5807 10.0422C81.126 10.5518 80.8987 11.2691 80.8987 12.1941ZM102.901 19.5552C104.594 19.5552 105.935 18.9986 106.922 17.8854C107.91 16.7723 108.404 15.2358 108.404 13.2759C108.404 11.3161 107.91 9.77571 106.922 8.6547C105.935 7.53369 104.594 6.97318 102.901 6.97318C101.208 6.97318 99.8711 7.53369 98.8912 8.6547C97.9112 9.77571 97.4213 11.3161 97.4213 13.2759C97.4213 15.2358 97.9112 16.7723 98.8912 17.8854C99.8711 18.9986 101.208 19.5552 102.901 19.5552ZM100.69 16.1805C101.239 16.8939 101.976 17.2506 102.901 17.2506C103.842 17.2506 104.586 16.8978 105.135 16.1923C105.684 15.4868 105.958 14.5147 105.958 13.2761C105.958 12.0375 105.684 11.0615 105.135 10.3481C104.586 9.63476 103.842 9.27808 102.901 9.27808C101.976 9.27808 101.239 9.63476 100.69 10.3481C100.142 11.0615 99.8671 12.0375 99.8671 13.2761C99.8671 14.499 100.142 15.4672 100.69 16.1805ZM113.379 19.273V12.5234C113.379 11.4102 113.622 10.6067 114.109 10.1128C114.595 9.61893 115.167 9.37199 115.825 9.37199C116.515 9.37199 117.15 9.56798 117.73 9.95994L118.083 7.70223C117.519 7.2162 116.844 6.97318 116.06 6.97318C114.806 6.97318 113.913 7.55328 113.379 8.7135V7.25539H110.934V19.273H113.379ZM122.306 22.8712L119.86 24.0001V7.25539H122.306V8.21962C123.058 7.38866 124.023 6.97318 125.199 6.97318C126.719 6.97318 127.923 7.53369 128.809 8.6547C129.694 9.77571 130.137 11.3161 130.137 13.2759C130.137 15.2201 129.687 16.7527 128.785 17.8737C127.883 18.9947 126.688 19.5552 125.199 19.5552C123.976 19.5552 123.011 19.1162 122.306 18.2382V22.8712ZM124.846 17.2506C123.842 17.2506 122.996 16.7881 122.306 15.8631V10.6421C122.87 9.73275 123.717 9.27808 124.846 9.27808C125.739 9.27808 126.437 9.64652 126.939 10.3834C127.441 11.1203 127.691 12.0845 127.691 13.2761C127.691 14.5617 127.448 15.5456 126.962 16.2276C126.476 16.9096 125.771 17.2506 124.846 17.2506ZM135.113 12.0532V19.2732H132.667V3.42217L135.113 2.29332V8.40795C135.865 7.45156 136.9 6.97336 138.217 6.97336C141.102 6.97336 142.544 8.68232 142.544 12.1002V19.2732H140.098V12.1002C140.098 11.1438 139.879 10.4344 139.44 9.97188C139.001 9.50936 138.421 9.2781 137.7 9.2781C135.975 9.2781 135.113 10.2031 135.113 12.0532Z" fill="white"/>
</svg>
