<svg viewBox="0 0 64 64" xmlns="http://www.w3.org/2000/svg">
  <defs>
    <linearGradient id="ucr-grad" x1="0%" y1="0%" x2="100%" y2="100%">
      <stop offset="0%" stop-color="#0969da"/>
      <stop offset="100%" stop-color="#0550ae"/>
    </linearGradient>
  </defs>
  <rect width="64" height="64" rx="12" fill="url(#ucr-grad)"/>
  <path d="M24 22c-4.4 0-8 3.6-8 8s3.6 8 8 8h3v-4h-3c-2.2 0-4-1.8-4-4s1.8-4 4-4h3v-4h-3zM37 22v4h3c2.2 0 4 1.8 4 4s-1.8 4-4 4h-3v4h3c4.4 0 8-3.6 8-8s-3.6-8-8-8h-3z" fill="white"/>
  <rect x="20" y="28" width="24" height="4" rx="2" fill="white"/>
</svg>
