<svg xmlns="http://www.w3.org/2000/svg" viewBox="0 0 64 64" fill="none">
  <!-- Category folders grid -->
  <rect x="8" y="8" width="22" height="22" rx="3" stroke="currentColor" stroke-width="2" fill="none"/>
  <path d="M12 14h6c1 0 1.5.5 2 1l1 1h7" stroke="currentColor" stroke-width="1.5" fill="none"/>
  <rect x="12" y="22" width="4" height="4" rx="1" fill="var(--accent-fill-rest, #0078d4)"/>

  <rect x="34" y="8" width="22" height="22" rx="3" stroke="currentColor" stroke-width="2" fill="none"/>
  <path d="M38 14h6c1 0 1.5.5 2 1l1 1h7" stroke="currentColor" stroke-width="1.5" fill="none"/>
  <rect x="38" y="22" width="4" height="4" rx="1" fill="var(--accent-fill-rest, #0078d4)" opacity="0.7"/>

  <rect x="8" y="34" width="22" height="22" rx="3" stroke="currentColor" stroke-width="2" fill="none"/>
  <path d="M12 40h6c1 0 1.5.5 2 1l1 1h7" stroke="currentColor" stroke-width="1.5" fill="none"/>
  <rect x="12" y="48" width="4" height="4" rx="1" fill="var(--accent-fill-rest, #0078d4)" opacity="0.5"/>

  <rect x="34" y="34" width="22" height="22" rx="3" stroke="currentColor" stroke-width="2" fill="none"/>
  <path d="M38 40h6c1 0 1.5.5 2 1l1 1h7" stroke="currentColor" stroke-width="1.5" fill="none"/>
  <rect x="38" y="48" width="4" height="4" rx="1" fill="var(--accent-fill-rest, #0078d4)" opacity="0.3"/>
</svg>
