<svg xmlns="http://www.w3.org/2000/svg" viewBox="0 0 140 79" fill="none">
  <style>
    .bg { fill: #f0f6ff; }
    .nf { fill: #616161; }
    .af { fill: #1B6EC2; }
  </style>
  <rect class="bg" width="140" height="79" rx="8"/>
  <!-- KPI card 1 -->
  <rect class="nf" x="10" y="10" width="56" height="26" rx="4" opacity="0.1"/>
  <rect class="af" x="14" y="14" width="20" height="3" rx="1"/>
  <rect class="nf" x="14" y="21" width="30" height="5" rx="1" opacity="0.6"/>
  <rect class="af" x="14" y="30" width="12" height="2" rx="1" opacity="0.4"/>
  <!-- KPI card 2 -->
  <rect class="nf" x="74" y="10" width="56" height="26" rx="4" opacity="0.1"/>
  <rect class="af" x="78" y="14" width="18" height="3" rx="1"/>
  <rect class="nf" x="78" y="21" width="26" height="5" rx="1" opacity="0.6"/>
  <rect class="af" x="78" y="30" width="14" height="2" rx="1" opacity="0.4"/>
  <!-- KPI card 3 -->
  <rect class="nf" x="10" y="43" width="56" height="26" rx="4" opacity="0.1"/>
  <rect class="af" x="14" y="47" width="22" height="3" rx="1"/>
  <rect class="nf" x="14" y="54" width="34" height="5" rx="1" opacity="0.6"/>
  <rect class="af" x="14" y="63" width="10" height="2" rx="1" opacity="0.4"/>
  <!-- KPI card 4 -->
  <rect class="nf" x="74" y="43" width="56" height="26" rx="4" opacity="0.1"/>
  <rect class="af" x="78" y="47" width="16" height="3" rx="1"/>
  <rect class="nf" x="78" y="54" width="28" height="5" rx="1" opacity="0.6"/>
  <rect class="af" x="78" y="63" width="16" height="2" rx="1" opacity="0.4"/>
</svg>
