<svg xmlns="http://www.w3.org/2000/svg" viewBox="0 0 140 79" fill="none">
  <style>
    .bg { fill: #f0f6ff; }
    .nf { fill: #616161; }
    .af { fill: #1B6EC2; }
  </style>
  <rect class="bg" width="140" height="79" rx="8"/>
  <!-- Table frame -->
  <rect class="nf" x="9" y="7" width="122" height="64" rx="5"/>
  <rect class="bg" x="11" y="9" width="118" height="60" rx="3"/>
  <!-- Header row -->
  <rect class="af" x="11" y="9" width="118" height="10" rx="3" opacity="0.2"/>
  <rect class="af" x="16" y="12" width="20" height="3" rx="1"/>
  <rect class="af" x="50" y="12" width="14" height="3" rx="1"/>
  <rect class="af" x="76" y="12" width="14" height="3" rx="1"/>
  <rect class="af" x="102" y="12" width="18" height="3" rx="1"/>
  <!-- Row 1 -->
  <rect class="nf" x="16" y="24" width="24" height="2" rx="1" opacity="0.5"/>
  <rect class="nf" x="50" y="24" width="16" height="2" rx="1" opacity="0.4"/>
  <rect class="nf" x="76" y="24" width="12" height="2" rx="1" opacity="0.4"/>
  <rect class="af" x="102" y="24" width="20" height="2" rx="1" opacity="0.6"/>
  <!-- Row 2 -->
  <rect class="nf" x="16" y="32" width="18" height="2" rx="1" opacity="0.5"/>
  <rect class="nf" x="50" y="32" width="14" height="2" rx="1" opacity="0.4"/>
  <rect class="nf" x="76" y="32" width="10" height="2" rx="1" opacity="0.4"/>
  <rect class="af" x="102" y="32" width="16" height="2" rx="1" opacity="0.6"/>
  <!-- Row 3 -->
  <rect class="nf" x="16" y="40" width="22" height="2" rx="1" opacity="0.5"/>
  <rect class="nf" x="50" y="40" width="12" height="2" rx="1" opacity="0.4"/>
  <rect class="nf" x="76" y="40" width="14" height="2" rx="1" opacity="0.4"/>
  <rect class="af" x="102" y="40" width="14" height="2" rx="1" opacity="0.6"/>
  <!-- Row 4 -->
  <rect class="nf" x="16" y="48" width="20" height="2" rx="1" opacity="0.5"/>
  <rect class="nf" x="50" y="48" width="10" height="2" rx="1" opacity="0.4"/>
  <rect class="nf" x="76" y="48" width="12" height="2" rx="1" opacity="0.4"/>
  <rect class="af" x="102" y="48" width="18" height="2" rx="1" opacity="0.6"/>
  <!-- Total row -->
  <rect class="af" x="11" y="55" width="118" height="10" rx="0" opacity="0.08"/>
  <rect class="af" x="16" y="58" width="16" height="3" rx="1" opacity="0.8"/>
  <rect class="af" x="50" y="58" width="14" height="3" rx="1" opacity="0.8"/>
  <rect class="af" x="76" y="58" width="12" height="3" rx="1" opacity="0.8"/>
  <rect class="af" x="102" y="58" width="20" height="3" rx="1" opacity="0.8"/>
</svg>
