<svg xmlns="http://www.w3.org/2000/svg" viewBox="0 0 140 79" fill="none">
  <style>
    .bg { fill: #f0f6ff; }
    .nf { fill: #616161; }
    .af { fill: #1B6EC2; }
  </style>
  <rect class="bg" width="140" height="79" rx="8"/>
  <!-- Timeline line -->
  <rect class="af" x="24" y="12" width="2" height="54" rx="1" opacity="0.25"/>
  <!-- Version 1 (latest) -->
  <circle class="af" cx="25" cy="18" r="4"/>
  <rect class="af" x="35" y="15" width="8" height="2" rx="1" opacity="0.5"/>
  <rect class="af" x="46" y="15" width="28" height="2" rx="1" opacity="0.7"/>
  <rect class="nf" x="35" y="20" width="80" height="2" rx="1" opacity="0.3"/>
  <!-- Version 2 -->
  <circle class="af" cx="25" cy="34" r="3.5" opacity="0.7"/>
  <rect class="af" x="35" y="31" width="8" height="2" rx="1" opacity="0.4"/>
  <rect class="af" x="46" y="31" width="24" height="2" rx="1" opacity="0.5"/>
  <rect class="nf" x="35" y="36" width="72" height="2" rx="1" opacity="0.25"/>
  <!-- Version 3 -->
  <circle class="af" cx="25" cy="50" r="3" opacity="0.5"/>
  <rect class="af" x="35" y="47" width="8" height="2" rx="1" opacity="0.3"/>
  <rect class="af" x="46" y="47" width="20" height="2" rx="1" opacity="0.4"/>
  <rect class="nf" x="35" y="52" width="64" height="2" rx="1" opacity="0.2"/>
  <!-- Version 4 (oldest) -->
  <circle class="nf" cx="25" cy="62" r="2.5" opacity="0.3"/>
  <rect class="nf" x="35" y="60" width="8" height="2" rx="1" opacity="0.2"/>
  <rect class="nf" x="46" y="60" width="18" height="2" rx="1" opacity="0.3"/>
  <rect class="nf" x="35" y="65" width="56" height="2" rx="1" opacity="0.15"/>
</svg>
