<svg xmlns="http://www.w3.org/2000/svg" viewBox="0 0 20 20" fill="currentColor"><path d="M10 1a1 1 0 0 1 1 1v1.07A5.001 5.001 0 0 1 15 8v3a3 3 0 0 1-1.14 2.36l.64 1.92a1 1 0 0 1-.95 1.32H6.45a1 1 0 0 1-.95-1.32l.64-1.92A3 3 0 0 1 5 11V8a5.001 5.001 0 0 1 4-4.93V2a1 1 0 0 1 1-1zM6 8v3a2 2 0 0 0 .76 1.57.5.5 0 0 1 .16.54l-.76 2.29h7.68l-.76-2.29a.5.5 0 0 1 .16-.54A2 2 0 0 0 14 11V8a4 4 0 0 0-8 0zm1.5 1a1 1 0 1 1 0 2 1 1 0 0 1 0-2zm5 0a1 1 0 1 1 0 2 1 1 0 0 1 0-2zM3 9.5a.5.5 0 0 1 .5-.5h1a.5.5 0 0 1 0 1h-1a.5.5 0 0 1-.5-.5zm12 0a.5.5 0 0 1 .5-.5h1a.5.5 0 0 1 0 1h-1a.5.5 0 0 1-.5-.5z"/></svg>