<svg xmlns="http://www.w3.org/2000/svg" viewBox="0 0 20 20"><rect width="20" height="20" rx="4" fill="#0078D4"/><path d="M7 3a4 4 0 0 0-4 4v1a4 4 0 0 0 3 3.87V14a.5.5 0 0 0 .8.4L9.5 12H13a4 4 0 0 0 4-4V7a4 4 0 0 0-4-4H7zm0 1h6a3 3 0 0 1 3 3v1a3 3 0 0 1-3 3H9.25a.5.5 0 0 0-.3.1L7 12.75V11.5a.5.5 0 0 0-.5-.5A3 3 0 0 1 4 8V7a3 3 0 0 1 3-3zm-1 9.5v1.25a.5.5 0 0 0 .8.4l2-1.5a5 5 0 0 1-2.8-.15zm6-7a.5.5 0 0 0 0 1h1a.5.5 0 0 0 0-1h-1zm-4 0a.5.5 0 0 0 0 1h2a.5.5 0 0 0 0-1H8zm-1 2a.5.5 0 0 0 0 1h4a.5.5 0 0 0 0-1H7z" fill="white"/></svg>