<svg xmlns="http://www.w3.org/2000/svg" width="24" height="24" viewBox="0 0 24 24"><rect width="24" height="24" rx="4" fill="#0078D4"/><path d="M12 2C7.58 2 4 3.34 4 5v14c0 1.66 3.58 3 8 3s8-1.34 8-3V5c0-1.66-3.58-3-8-3zm0 2c3.87 0 6 1.13 6 1s-2.13 1-6 1-6-.87-6-1 2.13-1 6-1zM6 7.26C7.53 7.94 9.63 8.3 12 8.3s4.47-.36 6-1.04V10c0 .17-2.13 1-6 1s-6-.83-6-1V7.26zM6 12.26c1.53.68 3.63 1.04 6 1.04s4.47-.36 6-1.04V15c0 .17-2.13 1-6 1s-6-.83-6-1v-2.74zM12 20c-3.87 0-6-.83-6-1v-2.74c1.53.68 3.63 1.04 6 1.04s4.47-.36 6-1.04V19c0 .17-2.13 1-6 1z" fill="white"/></svg>