<svg xmlns="http://www.w3.org/2000/svg" viewBox="0 0 20 20" fill="currentColor"><path d="M8 3.5a2.5 2.5 0 1 0 0 5 2.5 2.5 0 0 0 0-5ZM4.5 6a3.5 3.5 0 1 1 7 0 3.5 3.5 0 0 1-7 0Zm9 1a2 2 0 1 0 0 4 2 2 0 0 0 0-4Zm-3 2a3 3 0 1 1 6 0 3 3 0 0 1-6 0ZM2.5 14a2 2 0 0 1 2-2h7a2 2 0 0 1 2 2v1c0 1.38-1.27 2.5-3 2.5h-5C3.77 17.5 2.5 16.38 2.5 15v-1Zm2-1a1 1 0 0 0-1 1v1c0 .69.56 1.5 2 1.5h5c1.44 0 2-.81 2-1.5v-1a1 1 0 0 0-1-1h-7Zm9.5 1c0-.55-.12-1.07-.34-1.5h1.34c.83 0 1.5.67 1.5 1.5v.5c0 1.1-.9 2-2 2h-1.04c.34-.48.54-1.03.54-1.5v-1Z"/></svg>