<svg xmlns="http://www.w3.org/2000/svg" viewBox="0 0 20 20"><rect width="20" height="20" rx="4" fill="#C239B3"/><path d="M3.5 4A1.5 1.5 0 0 0 2 5.5v7A1.5 1.5 0 0 0 3.5 14h5.75v1.44l-2.62 1.31a.5.5 0 1 0 .44.9L10 16.31l2.93 1.34a.5.5 0 1 0 .44-.9l-2.62-1.31V14h5.75a1.5 1.5 0 0 0 1.5-1.5v-7A1.5 1.5 0 0 0 16.5 4h-13zm-.5 1.5a.5.5 0 0 1 .5-.5h13a.5.5 0 0 1 .5.5v7a.5.5 0 0 1-.5.5h-13a.5.5 0 0 1-.5-.5v-7zM6 10a.5.5 0 0 0-.5.5v1a.5.5 0 0 0 1 0v-1A.5.5 0 0 0 6 10zm3.5-2.5v4a.5.5 0 0 0 1 0v-4a.5.5 0 0 0-1 0zM14 8.5a.5.5 0 0 0-.5.5v2.5a.5.5 0 0 0 1 0V9a.5.5 0 0 0-.5-.5z" fill="white"/></svg>
