<svg xmlns="http://www.w3.org/2000/svg" viewBox="0 0 20 20" fill="currentColor"><path d="M11.08 2.26a.5.5 0 0 0-.66.04C8.58 4.14 7.23 6.34 6.69 8H4.5a.5.5 0 0 0-.39.19l-2 2.5a.5.5 0 0 0 .26.78l2.6.65a11.4 11.4 0 0 0-.43 1.84.5.5 0 0 0 .14.42l2.94 2.94a.5.5 0 0 0 .42.14c.65-.1 1.27-.24 1.84-.43l.65 2.6a.5.5 0 0 0 .78.26l2.5-2a.5.5 0 0 0 .19-.39V15.31c1.66-.54 3.86-1.89 5.7-3.73a.5.5 0 0 0 .04-.66c-1.18-1.74-2.73-3.3-4.47-4.47a24.4 24.4 0 0 0-4.18-2.19ZM12 9a1 1 0 1 1 0-2 1 1 0 0 1 0 2Zm-1-1a2 2 0 1 0 4 0 2 2 0 0 0-4 0ZM4.5 15a.5.5 0 0 0-.35.15l-2 2a.5.5 0 0 0 .7.7l2-2A.5.5 0 0 0 4.5 15Z"/></svg>