<svg xmlns="http://www.w3.org/2000/svg" viewBox="0 0 20 20"><rect width="20" height="20" rx="4" fill="#0078D4"/><path d="M8.59 2.56a1.5 1.5 0 0 1 2.82 0l.37 1.06a.75.75 0 0 0 1 .44l1.02-.46a1.5 1.5 0 0 1 2 2l-.46 1.02a.75.75 0 0 0 .44 1l1.06.37a1.5 1.5 0 0 1 0 2.82l-1.06.37a.75.75 0 0 0-.44 1l.46 1.02a1.5 1.5 0 0 1-2 2l-1.02-.46a.75.75 0 0 0-1 .44l-.37 1.06a1.5 1.5 0 0 1-2.82 0l-.37-1.06a.75.75 0 0 0-1-.44l-1.02.46a1.5 1.5 0 0 1-2-2l.46-1.02a.75.75 0 0 0-.44-1l-1.06-.37a1.5 1.5 0 0 1 0-2.82l1.06-.37a.75.75 0 0 0 .44-1l-.46-1.02a1.5 1.5 0 0 1 2-2l1.02.46a.75.75 0 0 0 1-.44l.37-1.06ZM10 13a3 3 0 1 0 0-6 3 3 0 0 0 0 6Zm0-1a2 2 0 1 1 0-4 2 2 0 0 1 0 4Z" fill="white"/></svg>