<svg xmlns="http://www.w3.org/2000/svg" viewBox="0 0 20 20"><rect width="20" height="20" rx="4" fill="#0078D4"/><path d="M10 2a.5.5 0 0 1 .42.23 5.5 5.5 0 0 0 4.45 2.27.5.5 0 0 1 .53.47c.1 1.07.13 2.2.05 3.35a8.5 8.5 0 0 1-5.1 7.08.5.5 0 0 1-.7 0 8.5 8.5 0 0 1-5.1-7.08 17.5 17.5 0 0 1 .05-3.35.5.5 0 0 1 .53-.47 5.5 5.5 0 0 0 4.45-2.27A.5.5 0 0 1 10 2Zm-4.33 3.46a16.5 16.5 0 0 0-.04 2.86 7.5 7.5 0 0 0 4.37 6.17 7.5 7.5 0 0 0 4.37-6.17c.05-.99.02-1.95-.04-2.86A6.5 6.5 0 0 1 10 3.14a6.5 6.5 0 0 1-4.33 2.32Z" fill="white"/></svg>