<svg xmlns="http://www.w3.org/2000/svg" viewBox="0 0 20 20"><rect width="20" height="20" rx="4" fill="#0078D4"/><path d="M7.85 3.15a.5.5 0 0 1 0 .7L6.21 5.5l-.71-.71a.5.5 0 0 1 .71-.71l.35.36 1.29-1.3a.5.5 0 0 1 .7 0ZM10 5a.5.5 0 0 0 0 1h6a.5.5 0 0 0 0-1h-6Zm0 5a.5.5 0 0 0 0 1h6a.5.5 0 0 0 0-1h-6Zm0 5a.5.5 0 0 0 0 1h6a.5.5 0 0 0 0-1h-6ZM7.85 8.15a.5.5 0 0 1 0 .7l-1.64 1.65-.71-.71a.5.5 0 0 1 .71-.71l.35.36 1.29-1.3a.5.5 0 0 1 .7 0Zm0 5a.5.5 0 0 1 0 .7l-1.64 1.65-.71-.71a.5.5 0 0 1 .71-.71l.35.36 1.29-1.3a.5.5 0 0 1 .7 0Z" fill="white"/></svg>