<svg xmlns="http://www.w3.org/2000/svg" viewBox="0 0 20 20"><rect width="20" height="20" rx="4" fill="#0078D4"/><path d="M2 5.5A1.5 1.5 0 0 1 3.5 4h8A1.5 1.5 0 0 1 13 5.5V7h1.38a1.5 1.5 0 0 1 1.34.83l1.12 2.24a1.5 1.5 0 0 1 .16.67v2.76a.5.5 0 0 1-.5.5H16a2 2 0 1 1-4 0H8a2 2 0 1 1-4 0H3.5A1.5 1.5 0 0 1 2 12.5v-7ZM3.5 5a.5.5 0 0 0-.5.5v7a.5.5 0 0 0 .5.5H4a2 2 0 0 1 3.87.5h.26V5H3.5Zm5.5 8.5h.13A2 2 0 0 1 13 12.85V8h1.38a.5.5 0 0 1 .45.28l1.12 2.24a.5.5 0 0 1 .05.22v2.76H16a2 2 0 0 1-4 0h-.87A2 2 0 0 1 9 13.5ZM13 8v4.05a2 2 0 0 1 2-.55V10.7l-1.12-2.24A.5.5 0 0 0 13.44 8H13ZM6 13a1 1 0 1 0 0 2 1 1 0 0 0 0-2Zm8 0a1 1 0 1 0 0 2 1 1 0 0 0 0-2Z" fill="white"/></svg>