<svg xmlns="http://www.w3.org/2000/svg" viewBox="0 0 64 64" fill="none">
  <!-- Shield outline -->
  <path d="M32 4 L56 16 V36 C56 48 44 58 32 62 C20 58 8 48 8 36 V16 Z" stroke="currentColor" stroke-width="2.5" fill="none"/>
  <!-- Inner shield -->
  <path d="M32 12 L50 21 V36 C50 45 41 53 32 56 C23 53 14 45 14 36 V21 Z" stroke="currentColor" stroke-width="1.5" fill="none"/>
  <!-- Keystone / cornerstone block -->
  <path d="M24 30 L28 22 H36 L40 30 V38 H24 Z" fill="var(--accent-fill-rest, #0078d4)"/>
  <!-- Cornerstone detail lines -->
  <line x1="24" y1="34" x2="40" y2="34" stroke="currentColor" stroke-width="1.5"/>
  <line x1="32" y1="22" x2="32" y2="30" stroke="currentColor" stroke-width="1.5"/>
  <!-- Foundation lines below keystone -->
  <line x1="20" y1="42" x2="44" y2="42" stroke="currentColor" stroke-width="1.5"/>
  <line x1="22" y1="46" x2="42" y2="46" stroke="currentColor" stroke-width="1.5"/>
</svg>
