<svg width="204" height="123" viewBox="0 0 204 123" fill="none" xmlns="http://www.w3.org/2000/svg">
<rect x="118" y="51.9996" width="75" height="47" rx="4" fill="white" stroke="#80B8FF" stroke-width="2" stroke-linecap="round" stroke-linejoin="round" stroke-dasharray="4 4"/>
<path d="M111.221 78.9998C112.222 83.9998 115.318 102 116.228 107.5C117.139 113 120.534 114 123.739 114H188.834C188.834 114 193.841 114 194.843 109C195.841 104.015 201.816 71.204 202.845 65.5517L202.855 65.4998C203.674 60.9998 200.852 59.9998 198.849 59.9998H168.805C167.803 59.9998 166.11 59.859 163.297 61.9998C160.484 64.1406 149.777 71.9998 149.777 71.9998H116.729C112.723 71.9998 110.219 73.9998 111.221 78.9998Z" fill="white" stroke="#80B8FF" stroke-width="2" stroke-linecap="round" stroke-linejoin="round" stroke-dasharray="4 4"/>
<rect x="10" y="51.9998" width="75" height="47" rx="4" fill="#80B8FF"/>
<path d="M87.6552 1V0.5V1ZM125.99 30.9654L125.499 30.8709L125.99 30.9654ZM104.278 41.9525L104.428 41.4752L104.278 41.9525ZM93.7113 20.9773L93.2272 20.8523L93.7113 20.9773ZM136.119 7.28617L135.886 7.72864L136.119 7.28617ZM156 38.3299L156.879 32.6237L151.498 34.7153L156 38.3299ZM42.3295 77.8565C42.0955 77.0757 41.8726 76.3002 41.6607 75.5301L40.6965 75.7955C40.9105 76.5729 41.1354 77.3556 41.3716 78.1435L42.3295 77.8565ZM40.498 70.8806C40.1408 69.2899 39.8316 67.7238 39.5688 66.1826L38.583 66.3507C38.8489 67.9094 39.1614 69.4925 39.5223 71.0997L40.498 70.8806ZM38.8963 61.4466C38.7139 59.8303 38.5842 58.2436 38.505 56.6871L37.5063 56.7379C37.5866 58.3154 37.718 59.9225 37.9026 61.5588L38.8963 61.4466ZM38.4205 51.8925C38.4474 50.2636 38.5319 48.671 38.6714 47.1153L37.6754 47.026C37.5337 48.6064 37.4479 50.2232 37.4206 51.876L38.4205 51.8925ZM39.2814 42.3853C39.5532 40.7833 39.8864 39.225 40.2774 37.7111L39.3092 37.461C38.911 39.0026 38.572 40.5886 38.2955 42.218L39.2814 42.3853ZM41.6753 33.1504C42.2186 31.6286 42.8244 30.1582 43.4885 28.7401L42.5829 28.316C41.9052 29.7631 41.2874 31.2627 40.7335 32.8141L41.6753 33.1504ZM45.7197 24.5291C46.542 23.148 47.4247 21.8256 48.363 20.5629L47.5603 19.9664C46.6018 21.2564 45.7002 22.6072 44.8604 24.0175L45.7197 24.5291ZM51.3963 16.893C52.4774 15.715 53.6129 14.6015 54.7973 13.5537L54.1348 12.8047C52.9245 13.8753 51.7643 15.0131 50.6595 16.2168L51.3963 16.893ZM58.5241 10.5858C59.8182 9.66 61.1573 8.80249 62.536 8.01443L62.0398 7.14624C60.6319 7.95097 59.2642 8.82677 57.9422 9.77253L58.5241 10.5858ZM66.7873 5.85895C68.2363 5.21255 69.7194 4.63636 71.2312 4.1315L70.9144 3.18299C69.3722 3.69802 67.8588 4.28595 66.3799 4.9457L66.7873 5.85895ZM75.8226 2.83778C77.3653 2.4808 78.9308 2.19437 80.5139 1.97956L80.3794 0.988637C78.766 1.20756 77.1702 1.49954 75.5972 1.86352L75.8226 2.83778ZM85.2672 1.55301C86.0604 1.51771 86.8566 1.5 87.6552 1.5V0.5C86.8418 0.5 86.0308 0.518042 85.2227 0.554001L85.2672 1.55301ZM87.6552 1.5C88.4612 1.5 89.2543 1.50886 90.0346 1.52647L90.0571 0.526721C89.2692 0.50894 88.4685 0.5 87.6552 0.5V1.5ZM94.7786 1.75198C96.4154 1.87331 97.9866 2.03785 99.4926 2.24425L99.6284 1.25351C98.1006 1.04412 96.5087 0.877485 94.8526 0.754716L94.7786 1.75198ZM104.15 3.05898C105.762 3.40788 107.284 3.81304 108.715 4.27214L109.02 3.31995C107.556 2.85017 106.003 2.43681 104.361 2.0816L104.15 3.05898ZM113.1 5.97558C114.591 6.6707 115.95 7.44067 117.179 8.2812L117.744 7.45586C116.466 6.58197 115.059 5.78546 113.522 5.06921L113.1 5.97558ZM120.74 11.2825C121.837 12.4311 122.763 13.6701 123.519 14.994L124.387 14.4982C123.59 13.1016 122.615 11.7974 121.463 10.5917L120.74 11.2825ZM125.296 19.2742C125.699 20.7273 125.945 22.26 126.032 23.8682L127.031 23.8142C126.94 22.1386 126.684 20.5339 126.259 19.0065L125.296 19.2742ZM125.863 28.5433C125.772 29.3057 125.651 30.0817 125.499 30.8709L126.481 31.0599C126.637 30.2484 126.762 29.4489 126.856 28.662L125.863 28.5433ZM125.499 30.8709C125.354 31.6211 125.158 32.3341 124.916 33.0099L125.858 33.3472C126.117 32.6222 126.327 31.8596 126.481 31.0599L125.499 30.8709ZM122.769 36.8473C121.836 38.0027 120.722 38.9799 119.477 39.7757L120.016 40.6183C121.346 39.768 122.543 38.7199 123.547 37.4754L122.769 36.8473ZM115.439 41.6042C114.031 42.0229 112.551 42.2672 111.046 42.3341L111.09 43.3331C112.673 43.2628 114.235 43.0056 115.724 42.5626L115.439 41.6042ZM106.595 42.0162C105.865 41.8784 105.14 41.6981 104.428 41.4752L104.129 42.4297C104.879 42.6643 105.642 42.8539 106.41 42.9989L106.595 42.0162ZM104.428 41.4752C103.715 41.2524 103.035 41.006 102.389 40.7364L102.004 41.6592C102.68 41.9414 103.389 42.1982 104.129 42.4297L104.428 41.4752ZM98.6423 38.643C97.4553 37.7621 96.4624 36.7519 95.6681 35.614L94.8481 36.1864C95.7084 37.4187 96.7788 38.5053 98.0463 39.446L98.6423 38.643ZM93.8727 31.7777C93.5106 30.4817 93.3209 29.068 93.3138 27.5351L92.3138 27.5397C92.3212 29.1525 92.521 30.6559 92.9096 32.0469L93.8727 31.7777ZM93.7231 23.2294C93.8503 22.539 94.0075 21.8299 94.1954 21.1023L93.2272 20.8523C93.0338 21.6014 92.8713 22.3334 92.7396 23.0483L93.7231 23.2294ZM94.1954 21.1023C94.4154 20.2504 94.664 19.4323 94.9394 18.6473L93.9958 18.3163C93.7107 19.1288 93.454 19.9739 93.2272 20.8523L94.1954 21.1023ZM97.0758 14.0269C97.9754 12.5099 99.0035 11.1651 100.139 9.9836L99.4176 9.29074C98.2283 10.5285 97.1538 11.9348 96.2156 13.5168L97.0758 14.0269ZM104.062 6.78038C105.494 5.87362 107.026 5.14127 108.634 4.57442L108.301 3.63133C106.627 4.2218 105.026 4.98632 103.527 5.93553L104.062 6.78038ZM113.584 3.37227C115.246 3.1333 116.955 3.03884 118.687 3.08111L118.712 2.08141C116.927 2.03786 115.162 2.13505 113.442 2.38245L113.584 3.37227ZM123.785 3.58444C125.454 3.86985 127.123 4.27151 128.774 4.78233L129.07 3.82702C127.379 3.30372 125.667 2.89173 123.953 2.59875L123.785 3.58444ZM133.577 6.60176C134.357 6.95332 135.127 7.32923 135.886 7.72864L136.352 6.84369C135.575 6.43481 134.786 6.04999 133.988 5.69011L133.577 6.60176ZM135.886 7.72864C136.557 8.08161 137.208 8.47883 137.841 8.91674L138.41 8.09431C137.746 7.63478 137.06 7.21643 136.352 6.84369L135.886 7.72864ZM141.333 11.9043C142.379 12.9804 143.368 14.1704 144.307 15.4505L145.114 14.8589C144.151 13.5475 143.133 12.3214 142.05 11.2074L141.333 11.9043ZM146.863 19.3359C147.645 20.6519 148.389 22.023 149.1 23.4299L149.992 22.9787C149.273 21.555 148.518 20.1636 147.722 18.825L146.863 19.3359ZM151.104 27.6556C151.742 29.0829 152.354 30.5251 152.944 31.964L153.869 31.5845C153.276 30.1384 152.66 28.6863 152.017 27.2473L151.104 27.6556Z" fill="#C6C6C6"/>
<g filter="url(#filter0_d_6797_35015)">
<rect x="16.071" y="41.2275" width="49.2308" height="64" rx="2" transform="rotate(-16 16.071 41.2275)" fill="white"/>
</g>
<rect x="35.7129" y="74.0061" width="6.76923" height="1.23077" rx="0.615385" transform="rotate(-16 35.7129 74.0061)" fill="#80B8FF"/>
<rect x="39.4275" y="69.0999" width="14.7692" height="1.23077" rx="0.615385" transform="rotate(-16 39.4275 69.0999)" fill="#80B8FF"/>
<rect x="34.9565" y="78.0647" width="9.84615" height="1.23077" rx="0.615385" transform="rotate(-16 34.9565 78.0647)" fill="#CCE3FF"/>
<rect x="45.6042" y="75.011" width="9.84615" height="1.23077" rx="0.615385" transform="rotate(-16 45.6042 75.011)" fill="#4D9CFF"/>
<rect x="62.1674" y="70.2617" width="6.15385" height="1.23077" rx="0.615385" transform="rotate(-16 62.1674 70.2617)" fill="#80B8FF"/>
<rect x="56.4171" y="68.0693" width="9.84615" height="1.23077" rx="0.615385" transform="rotate(-16 56.4171 68.0693)" fill="#4D9CFF"/>
<rect x="56.252" y="71.9581" width="4.92308" height="1.23077" rx="0.615385" transform="rotate(-16 56.252 71.9581)" fill="#CCE3FF"/>
<path d="M16.6223 43.1501C16.3179 42.0883 16.9318 40.9807 17.9936 40.6763L61.4722 28.209C62.5339 27.9045 63.6415 28.5184 63.946 29.5802L65.0909 33.5732L17.7673 47.143L16.6223 43.1501Z" fill="#80B8FF"/>
<circle cx="57.7358" cy="32.4814" r="0.615385" transform="rotate(-16 57.7358 32.4814)" fill="#4D9CFF"/>
<circle cx="59.5106" cy="31.9726" r="0.615385" transform="rotate(-16 59.5106 31.9726)" fill="#4D9CFF"/>
<circle cx="61.2849" cy="31.4637" r="0.615385" transform="rotate(-16 61.2849 31.4637)" fill="#4D9CFF"/>
<rect x="34.5996" y="58.9612" width="1.23077" height="1.23077" rx="0.615385" transform="rotate(-16 34.5996 58.9612)" fill="#4D9CFF"/>
<rect x="40.7063" y="80.2566" width="1.23077" height="1.23077" rx="0.615385" transform="rotate(-16 40.7063 80.2566)" fill="#4D9CFF"/>
<rect x="64.7946" y="77.1908" width="1.23077" height="1.23077" rx="0.615385" transform="rotate(-16 64.7946 77.1908)" fill="#80B8FF"/>
<rect x="32.5898" y="78.7428" width="1.23077" height="1.23077" rx="0.615385" transform="rotate(-16 32.5898 78.7428)" fill="#4D9CFF"/>
<rect x="43.4034" y="71.801" width="1.23077" height="1.23077" rx="0.615385" transform="rotate(-16 43.4034 71.801)" fill="#4D9CFF"/>
<rect x="36.9662" y="58.2828" width="9.84615" height="1.23077" rx="0.615385" transform="rotate(-16 36.9662 58.2828)" fill="#4D9CFF"/>
<rect x="47.8746" y="62.8367" width="9.84615" height="1.23077" rx="0.615385" transform="rotate(-16 47.8746 62.8367)" fill="#4D9CFF"/>
<rect x="58.3573" y="63.672" width="9.84615" height="1.23077" rx="0.615385" transform="rotate(-16 58.3573 63.672)" fill="#CCE3FF"/>
<rect x="43.0725" y="79.5784" width="9.84615" height="1.23077" rx="0.615385" transform="rotate(-16 43.0725 79.5784)" fill="#CCE3FF"/>
<rect x="54.1467" y="80.2439" width="9.84615" height="1.23077" rx="0.615385" transform="rotate(-16 54.1467 80.2439)" fill="#CCE3FF"/>
<rect x="63.1852" y="73.811" width="8" height="1.23077" rx="0.615385" transform="rotate(-16 63.1852 73.811)" fill="#CCE3FF"/>
<rect x="45.7693" y="71.1227" width="9.84615" height="1.23077" rx="0.615385" transform="rotate(-16 45.7693 71.1227)" fill="#CCE3FF"/>
<rect x="47.6141" y="55.2295" width="2.46154" height="1.23077" rx="0.615385" transform="rotate(-16 47.6141 55.2295)" fill="#80B8FF"/>
<rect x="53.7203" y="76.5249" width="2.46154" height="1.23077" rx="0.615385" transform="rotate(-16 53.7203 76.5249)" fill="#80B8FF"/>
<rect x="23.8564" y="50.5184" width="9.84615" height="1.23077" rx="0.615385" transform="rotate(-16 23.8564 50.5184)" fill="#4D9CFF"/>
<rect x="34.5044" y="47.465" width="14.7692" height="1.23077" rx="0.615385" transform="rotate(-16 34.5044 47.465)" fill="#4D9CFF"/>
<rect x="43.8038" y="48.6399" width="14.7692" height="1.23077" rx="0.615385" transform="rotate(-16 43.8038 48.6399)" fill="#80B8FF"/>
<rect x="39.6188" y="92.0916" width="9.84615" height="1.23077" rx="0.615385" transform="rotate(-16 39.6188 92.0916)" fill="#4D9CFF"/>
<rect x="24.8743" y="54.0679" width="4.92308" height="1.23077" rx="0.615385" transform="rotate(-16 24.8743 54.0679)" fill="#80B8FF"/>
<rect x="58.5223" y="59.7838" width="4.92308" height="1.23077" rx="0.615385" transform="rotate(-16 58.5223 59.7838)" fill="#80B8FF"/>
<rect x="57.2699" y="75.5071" width="4.92308" height="1.23077" rx="0.615385" transform="rotate(-16 57.2699 75.5071)" fill="#CCE3FF"/>
<rect x="49.8845" y="43.0548" width="4.92308" height="1.23077" rx="0.615385" transform="rotate(-16 49.8845 43.0548)" fill="#CCE3FF"/>
<rect x="32.9905" y="55.5814" width="9.84615" height="1.23077" rx="0.615385" transform="rotate(-16 32.9905 55.5814)" fill="#CCE3FF"/>
<rect x="46.0049" y="51.8499" width="9.84615" height="1.23077" rx="0.615385" transform="rotate(-16 46.0049 51.8499)" fill="#CCE3FF"/>
<rect x="38.601" y="88.5428" width="4.92308" height="1.23077" rx="0.615385" transform="rotate(-16 38.601 88.5428)" fill="#80B8FF"/>
<rect x="30.7897" y="52.3715" width="12.3077" height="1.23077" rx="0.615385" transform="rotate(-16 30.7897 52.3715)" fill="#CCE3FF"/>
<rect x="44.5166" y="86.8464" width="12.3077" height="1.23077" rx="0.615385" transform="rotate(-16 44.5166 86.8464)" fill="#CCE3FF"/>
<rect x="50.2665" y="89.0388" width="12.3077" height="1.23077" rx="0.615385" transform="rotate(-16 50.2665 89.0388)" fill="#CCE3FF"/>
<rect x="63.2805" y="85.3074" width="1.23077" height="1.23077" rx="0.615385" transform="rotate(-16 63.2805 85.3074)" fill="#80B8FF"/>
<rect x="65.6466" y="84.6284" width="3.69231" height="1.23077" rx="0.615385" transform="rotate(-16 65.6466 84.6284)" fill="#80B8FF"/>
<rect x="57.5303" y="83.1147" width="4.92308" height="1.23077" rx="0.615385" transform="rotate(-16 57.5303 83.1147)" fill="#4D9CFF"/>
<rect x="29.4414" y="56.5992" width="2.46154" height="1.23077" rx="0.615385" transform="rotate(-16 29.4414 56.5992)" fill="#4D9CFF"/>
<rect x="55.7998" y="41.3586" width="2.46154" height="1.23077" rx="0.615385" transform="rotate(-16 55.7998 41.3586)" fill="#80B8FF"/>
<rect x="43.6383" y="52.5282" width="1.23077" height="1.23077" rx="0.615385" transform="rotate(-16 43.6383 52.5282)" fill="#80B8FF"/>
<rect x="26.91" y="61.1661" width="6.76923" height="1.23077" rx="0.615385" transform="rotate(-16 26.91 61.1661)" fill="#80B8FF"/>
<rect x="33.0162" y="82.4617" width="6.76923" height="1.23077" rx="0.615385" transform="rotate(-16 33.0162 82.4617)" fill="#80B8FF"/>
<rect x="30.8851" y="63.8671" width="9.84615" height="1.23077" rx="0.615385" transform="rotate(-16 30.8851 63.8671)" fill="#CCE3FF"/>
<rect x="63.4456" y="81.4183" width="9.84615" height="1.23077" rx="0.615385" transform="rotate(-16 63.4456 81.4183)" fill="#80B8FF"/>
<rect x="47.4485" y="59.1178" width="9.84615" height="1.23077" rx="0.615385" transform="rotate(-16 47.4485 59.1178)" fill="#CCE3FF"/>
<rect x="57.0786" y="52.5155" width="8" height="1.23077" rx="0.615385" transform="rotate(-16 57.0786 52.5155)" fill="#4D9CFF"/>
<rect x="28.9453" y="68.2646" width="14.7692" height="1.23077" rx="0.615385" transform="rotate(-16 28.9453 68.2646)" fill="#CCE3FF"/>
<rect x="35.2169" y="85.6716" width="14.7692" height="1.23077" rx="0.615385" transform="rotate(-16 35.2169 85.6716)" fill="#CCE3FF"/>
<rect x="44.3254" y="63.8542" width="2.46154" height="1.23077" rx="0.615385" transform="rotate(-16 44.3254 63.8542)" fill="#CCE3FF"/>
<rect x="50.5972" y="81.2616" width="2.46154" height="1.23077" rx="0.615385" transform="rotate(-16 50.5972 81.2616)" fill="#4D9CFF"/>
<rect x="36.0697" y="93.1096" width="2.46154" height="1.23077" rx="0.615385" transform="rotate(-16 36.0697 93.1096)" fill="#4D9CFF"/>
<rect x="29.963" y="71.8138" width="2.46154" height="1.23077" rx="0.615385" transform="rotate(-16 29.963 71.8138)" fill="#4D9CFF"/>
<rect x="54.8077" y="64.6898" width="2.46154" height="1.23077" rx="0.615385" transform="rotate(-16 54.8077 64.6898)" fill="#80B8FF"/>
<rect x="33.5122" y="70.7961" width="4.92308" height="1.23077" rx="0.615385" transform="rotate(-16 33.5122 70.7961)" fill="#80B8FF"/>
<rect x="41.5328" y="60.8141" width="4.92308" height="1.23077" rx="0.615385" transform="rotate(-16 41.5328 60.8141)" fill="#80B8FF"/>
<rect x="51.1631" y="54.2115" width="4.92308" height="1.23077" rx="0.615385" transform="rotate(-16 51.1631 54.2115)" fill="#80B8FF"/>
<path d="M3.22083 78.9999C4.22229 83.9999 7.3177 102 8.22814 107.5C9.13858 113 12.5344 114 15.7391 114H80.8341C80.8341 114 85.8415 114 86.8429 109C87.8413 104.015 93.8159 71.2041 94.8452 65.5518L94.8546 65.4999C95.674 60.9999 92.8516 59.9999 90.8488 59.9999H60.8049C59.8034 59.9999 58.1095 59.8591 55.2969 61.9999C52.4842 64.1408 41.7771 71.9999 41.7771 71.9999H8.72887C4.723 71.9999 2.21937 73.9999 3.22083 78.9999Z" fill="#CCE3FF"/>
<defs>
<filter id="filter0_d_6797_35015" x="0.544312" y="16.131" width="96.0179" height="106.144" filterUnits="userSpaceOnUse" color-interpolation-filters="sRGB">
<feFlood flood-opacity="0" result="BackgroundImageFix"/>
<feColorMatrix in="SourceAlpha" type="matrix" values="0 0 0 0 0 0 0 0 0 0 0 0 0 0 0 0 0 0 127 0" result="hardAlpha"/>
<feOffset dy="4"/>
<feGaussianBlur stdDeviation="8"/>
<feComposite in2="hardAlpha" operator="out"/>
<feColorMatrix type="matrix" values="0 0 0 0 0 0 0 0 0 0.156863 0 0 0 0 0.352941 0 0 0 0.25 0"/>
<feBlend mode="normal" in2="BackgroundImageFix" result="effect1_dropShadow_6797_35015"/>
<feBlend mode="normal" in="SourceGraphic" in2="effect1_dropShadow_6797_35015" result="shape"/>
</filter>
</defs>
</svg>
