<svg width="232" height="168" viewBox="0 0 232 168" fill="none" xmlns="http://www.w3.org/2000/svg">
<circle cx="117" cy="84" r="84" fill="#CCE3FF"/>
<circle cx="41" cy="25" r="4" fill="#CCE3FF"/>
<circle cx="34" cy="17" r="2" fill="#CCE3FF"/>
<circle cx="156" cy="156" r="6" fill="#CCE3FF"/>
<circle cx="169" cy="162" r="3" fill="#CCE3FF"/>
<g filter="url(#filter0_d_6793_34762)">
<rect width="79.799" height="102.824" rx="2" transform="matrix(0.966581 -0.25636 0.261298 0.965258 16 43.7483)" fill="white"/>
</g>
<path d="M47.3071 92.2138L42.2954 95.0774L96.2877 80.7574L90.0874 57.8531L88.1628 61.4321L83.1511 64.2956L79.8768 68.2327L70.8156 72.1702L63.1043 75.7497L57.9053 83.2658L51.5438 86.4873L47.3071 92.2138Z" fill="#4D9CFF"/>
<path d="M71.5908 75.0331L64.267 80.0441L58.293 84.6972L53.2813 87.5607L50.2006 92.2135L47.6948 93.6452L96.2878 80.7572L90.8626 60.716L89.3255 65.7266L84.3138 68.5901L81.0394 72.5271L71.5908 75.0331Z" fill="#CCE3FF"/>
<path d="M58.6808 86.1286L50.3947 92.9292L96.2881 80.7572L93.188 69.3051L91.2634 72.8841L85.8642 74.3161L82.2023 76.8216L72.7536 79.3276L65.0423 82.9071L58.6808 86.1286Z" fill="#80B8FF"/>
<rect width="21.9447" height="3.95477" rx="1.97739" transform="matrix(0.966581 -0.25636 0.261298 0.965258 30.67 52.1318)" fill="#80B8FF"/>
<rect width="55.8593" height="1.97739" rx="0.988693" transform="matrix(0.966581 -0.25636 0.261298 0.965258 32.7367 59.7664)" fill="#CCE3FF"/>
<rect width="52.8668" height="1.97739" rx="0.988693" transform="matrix(0.966581 -0.25636 0.261298 0.965258 33.7701 63.584)" fill="#CCE3FF"/>
<rect width="24.9372" height="1.97739" rx="0.988693" transform="matrix(0.966581 -0.25636 0.261298 0.965258 34.8035 67.4014)" fill="#CCE3FF"/>
<ellipse rx="11.9698" ry="11.8643" transform="matrix(0.966581 -0.25636 0.261298 0.965258 59.5488 113.004)" fill="#CCE3FF"/>
<path fill-rule="evenodd" clip-rule="evenodd" d="M71.1149 109.922L71.1187 109.936L59.5488 113.004L56.4487 101.552L56.4755 101.545C62.8522 99.8692 69.3993 103.614 71.1149 109.922Z" fill="#4D9CFF"/>
<path fill-rule="evenodd" clip-rule="evenodd" d="M71.1187 109.936C71.7223 112.165 71.6418 114.417 71.0046 116.472L59.5489 113.004L71.1187 109.936Z" fill="#80B8FF"/>
<ellipse rx="7.48116" ry="7.4152" transform="matrix(0.966581 -0.25636 0.261298 0.965258 59.5494 113.004)" fill="white"/>
<ellipse rx="0.997487" ry="0.988693" transform="matrix(0.966581 -0.25636 0.261298 0.965258 78.1261 109.1)" fill="#80B8FF"/>
<ellipse rx="0.997487" ry="0.988693" transform="matrix(0.966581 -0.25636 0.261298 0.965258 76.576 103.374)" fill="#80B8FF"/>
<ellipse rx="0.997487" ry="0.988693" transform="matrix(0.966581 -0.25636 0.261298 0.965258 79.6762 114.826)" fill="#80B8FF"/>
<rect width="21.9447" height="1.97739" rx="0.988693" transform="matrix(0.966581 -0.25636 0.261298 0.965258 79.2101 101.653)" fill="#CCE3FF"/>
<rect width="21.9447" height="1.97739" rx="0.988693" transform="matrix(0.966581 -0.25636 0.261298 0.965258 80.7602 107.379)" fill="#CCE3FF"/>
<rect width="21.9447" height="1.97739" rx="0.988693" transform="matrix(0.966581 -0.25636 0.261298 0.965258 82.3103 113.105)" fill="#CCE3FF"/>
<g filter="url(#filter1_d_6793_34762)">
<rect width="79.799" height="102.824" rx="2" transform="matrix(0.966581 0.25636 -0.261298 0.965258 138.868 23)" fill="white"/>
</g>
<rect width="10.9724" height="1.97739" rx="0.988693" transform="matrix(0.966581 0.25636 -0.261298 0.965258 138.794 84.3521)" fill="#80B8FF"/>
<rect width="23.9397" height="1.97739" rx="0.988693" transform="matrix(0.966581 0.25636 -0.261298 0.965258 148.057 80.6716)" fill="#80B8FF"/>
<rect width="15.9598" height="1.97739" rx="0.988693" transform="matrix(0.966581 0.25636 -0.261298 0.965258 134.351 89.311)" fill="#CCE3FF"/>
<rect width="15.9598" height="1.97739" rx="0.988693" transform="matrix(0.966581 0.25636 -0.261298 0.965258 151.706 93.9138)" fill="#4D9CFF"/>
<rect width="9.97487" height="1.97739" rx="0.988693" transform="matrix(0.966581 0.25636 -0.261298 0.965258 178.702 101.074)" fill="#80B8FF"/>
<rect width="15.9598" height="1.97739" rx="0.988693" transform="matrix(0.966581 0.25636 -0.261298 0.965258 172.539 93.302)" fill="#4D9CFF"/>
<rect width="7.9799" height="1.97739" rx="0.988693" transform="matrix(0.966581 0.25636 -0.261298 0.965258 169.061 98.5168)" fill="#CCE3FF"/>
<path d="M138.345 24.9305C138.634 23.8643 139.733 23.2296 140.801 23.5127L214.067 42.9445C215.135 43.2277 215.766 44.3216 215.477 45.3878L213.417 53.0007L136.284 32.5434L138.345 24.9305Z" fill="#80B8FF"/>
<ellipse rx="0.997487" ry="0.988693" transform="matrix(0.966581 0.25636 -0.261298 0.965258 204.103 45.4161)" fill="#4D9CFF"/>
<ellipse rx="0.997487" ry="0.988693" transform="matrix(0.966581 0.25636 -0.261298 0.965258 206.995 45.9464)" fill="#4D9CFF"/>
<ellipse rx="0.997487" ry="0.988693" transform="matrix(0.966581 0.25636 -0.261298 0.965258 209.888 46.9505)" fill="#4D9CFF"/>
<rect width="1.99497" height="1.97739" rx="0.988693" transform="matrix(0.966581 0.25636 -0.261298 0.965258 149.815 62.7263)" fill="#4D9CFF"/>
<rect width="1.99497" height="1.97739" rx="0.988693" transform="matrix(0.966581 0.25636 -0.261298 0.965258 140.514 97.083)" fill="#4D9CFF"/>
<rect width="1.99497" height="1.97739" rx="0.988693" transform="matrix(0.966581 0.25636 -0.261298 0.965258 176.566 112.782)" fill="#80B8FF"/>
<rect width="1.99497" height="1.97739" rx="0.988693" transform="matrix(0.966581 0.25636 -0.261298 0.965258 130.494 88.2883)" fill="#4D9CFF"/>
<rect width="1.99497" height="1.97739" rx="0.988693" transform="matrix(0.966581 0.25636 -0.261298 0.965258 151.328 87.6765)" fill="#4D9CFF"/>
<rect width="15.9598" height="1.97739" rx="0.988693" transform="matrix(0.966581 0.25636 -0.261298 0.965258 153.671 63.7493)" fill="#4D9CFF"/>
<rect width="15.9598" height="1.97739" rx="0.988693" transform="matrix(0.966581 0.25636 -0.261298 0.965258 165.033 79.0374)" fill="#4D9CFF"/>
<rect width="15.9598" height="1.97739" rx="0.988693" transform="matrix(0.966581 0.25636 -0.261298 0.965258 178.91 88.8547)" fill="#CCE3FF"/>
<rect width="15.9598" height="1.97739" rx="0.988693" transform="matrix(0.966581 0.25636 -0.261298 0.965258 144.371 98.1057)" fill="#CCE3FF"/>
<rect width="15.9598" height="1.97739" rx="0.988693" transform="matrix(0.966581 0.25636 -0.261298 0.965258 159.211 108.179)" fill="#CCE3FF"/>
<rect width="12.9673" height="1.97739" rx="0.988693" transform="matrix(0.966581 0.25636 -0.261298 0.965258 177.152 106.8)" fill="#CCE3FF"/>
<rect width="15.9598" height="1.97739" rx="0.988693" transform="matrix(0.966581 0.25636 -0.261298 0.965258 155.184 88.6992)" fill="#CCE3FF"/>
<rect width="3.98995" height="1.97739" rx="0.988693" transform="matrix(0.966581 0.25636 -0.261298 0.965258 171.026 68.3523)" fill="#80B8FF"/>
<rect width="3.98995" height="1.97739" rx="0.988693" transform="matrix(0.966581 0.25636 -0.261298 0.965258 161.726 102.708)" fill="#80B8FF"/>
<rect width="15.9598" height="1.97739" rx="0.988693" transform="matrix(0.966581 0.25636 -0.261298 0.965258 141.931 42.2239)" fill="#4D9CFF"/>
<rect width="23.9397" height="1.97739" rx="0.988693" transform="matrix(0.966581 0.25636 -0.261298 0.965258 159.286 46.8269)" fill="#4D9CFF"/>
<rect width="23.9397" height="1.97739" rx="0.988693" transform="matrix(0.966581 0.25636 -0.261298 0.965258 171.234 56.1328)" fill="#80B8FF"/>
<rect width="15.9598" height="1.97739" rx="0.988693" transform="matrix(0.966581 0.25636 -0.261298 0.965258 129.115 112.471)" fill="#4D9CFF"/>
<rect width="7.9799" height="1.97739" rx="0.988693" transform="matrix(0.966581 0.25636 -0.261298 0.965258 140.381 47.95)" fill="#80B8FF"/>
<rect width="7.9799" height="1.97739" rx="0.988693" transform="matrix(0.966581 0.25636 -0.261298 0.965258 182.388 83.6401)" fill="#80B8FF"/>
<rect width="7.9799" height="1.97739" rx="0.988693" transform="matrix(0.966581 0.25636 -0.261298 0.965258 167.511 104.243)" fill="#CCE3FF"/>
<rect width="7.9799" height="1.97739" rx="0.988693" transform="matrix(0.966581 0.25636 -0.261298 0.965258 184.354 53.4753)" fill="#CCE3FF"/>
<rect width="15.9598" height="1.97739" rx="0.988693" transform="matrix(0.966581 0.25636 -0.261298 0.965258 150.401 56.7446)" fill="#CCE3FF"/>
<rect width="15.9598" height="1.97739" rx="0.988693" transform="matrix(0.966581 0.25636 -0.261298 0.965258 171.612 62.3704)" fill="#CCE3FF"/>
<rect width="7.9799" height="1.97739" rx="0.988693" transform="matrix(0.966581 0.25636 -0.261298 0.965258 130.665 106.745)" fill="#80B8FF"/>
<rect width="19.9497" height="1.97739" rx="0.988693" transform="matrix(0.966581 0.25636 -0.261298 0.965258 150.022 50.5073)" fill="#CCE3FF"/>
<rect width="19.9497" height="1.97739" rx="0.988693" transform="matrix(0.966581 0.25636 -0.261298 0.965258 140.307 109.302)" fill="#CCE3FF"/>
<rect width="19.9497" height="1.97739" rx="0.988693" transform="matrix(0.966581 0.25636 -0.261298 0.965258 146.47 117.074)" fill="#CCE3FF"/>
<rect width="1.99497" height="1.97739" rx="0.988693" transform="matrix(0.966581 0.25636 -0.261298 0.965258 167.681 122.7)" fill="#80B8FF"/>
<rect width="5.98492" height="1.97739" rx="0.988693" transform="matrix(0.966581 0.25636 -0.261298 0.965258 171.538 123.722)" fill="#80B8FF"/>
<rect width="7.9799" height="1.97739" rx="0.988693" transform="matrix(0.966581 0.25636 -0.261298 0.965258 161.518 114.928)" fill="#4D9CFF"/>
<rect width="3.98995" height="1.97739" rx="0.988693" transform="matrix(0.966581 0.25636 -0.261298 0.965258 144.616 55.2104)" fill="#4D9CFF"/>
<rect width="3.98995" height="1.97739" rx="0.988693" transform="matrix(0.966581 0.25636 -0.261298 0.965258 193.995 56.0325)" fill="#80B8FF"/>
<rect width="1.99497" height="1.97739" rx="0.988693" transform="matrix(0.966581 0.25636 -0.261298 0.965258 167.755 61.3477)" fill="#80B8FF"/>
<rect width="10.9724" height="1.97739" rx="0.988693" transform="matrix(0.966581 0.25636 -0.261298 0.965258 137.281 59.4023)" fill="#80B8FF"/>
<rect width="10.9724" height="1.97739" rx="0.988693" transform="matrix(0.966581 0.25636 -0.261298 0.965258 127.98 93.7585)" fill="#80B8FF"/>
<rect width="15.9598" height="1.97739" rx="0.988693" transform="matrix(0.966581 0.25636 -0.261298 0.965258 140.551 66.4067)" fill="#CCE3FF"/>
<rect width="15.9598" height="1.97739" rx="0.988693" transform="matrix(0.966581 0.25636 -0.261298 0.965258 171.159 117.485)" fill="#80B8FF"/>
<rect width="15.9598" height="1.97739" rx="0.988693" transform="matrix(0.966581 0.25636 -0.261298 0.965258 167.548 73.5667)" fill="#CCE3FF"/>
<rect width="12.9673" height="1.97739" rx="0.988693" transform="matrix(0.966581 0.25636 -0.261298 0.965258 186.452 72.4436)" fill="#4D9CFF"/>
<rect width="23.9397" height="1.97739" rx="0.988693" transform="matrix(0.966581 0.25636 -0.261298 0.965258 134.18 70.8542)" fill="#CCE3FF"/>
<rect width="23.9397" height="1.97739" rx="0.988693" transform="matrix(0.966581 0.25636 -0.261298 0.965258 128.358 99.9961)" fill="#CCE3FF"/>
<rect width="3.98995" height="1.97739" rx="0.988693" transform="matrix(0.966581 0.25636 -0.261298 0.965258 159.248 77.5029)" fill="#CCE3FF"/>
<rect width="3.98995" height="1.97739" rx="0.988693" transform="matrix(0.966581 0.25636 -0.261298 0.965258 153.426 106.645)" fill="#4D9CFF"/>
<rect width="3.98995" height="1.97739" rx="0.988693" transform="matrix(0.966581 0.25636 -0.261298 0.965258 123.33 110.937)" fill="#4D9CFF"/>
<rect width="3.98995" height="1.97739" rx="0.988693" transform="matrix(0.966581 0.25636 -0.261298 0.965258 132.63 76.5803)" fill="#4D9CFF"/>
<rect width="3.98995" height="1.97739" rx="0.988693" transform="matrix(0.966581 0.25636 -0.261298 0.965258 173.125 87.3203)" fill="#80B8FF"/>
<rect width="7.9799" height="1.97739" rx="0.988693" transform="matrix(0.966581 0.25636 -0.261298 0.965258 138.415 78.1145)" fill="#80B8FF"/>
<rect width="7.9799" height="1.97739" rx="0.988693" transform="matrix(0.966581 0.25636 -0.261298 0.965258 157.906 71.0098)" fill="#80B8FF"/>
<rect width="7.9799" height="1.97739" rx="0.988693" transform="matrix(0.966581 0.25636 -0.261298 0.965258 176.811 69.8865)" fill="#80B8FF"/>
<g filter="url(#filter2_d_6793_34762)">
<rect x="70" y="22" width="96" height="120" rx="2" fill="white"/>
</g>
<path d="M128.665 92.8564C127.666 97.5377 132.816 105 132.816 105C122.495 105 116.082 98.2869 113.766 91.6999C109.713 79.5546 126.013 65 136.333 65C136.333 65 135.084 83.7318 128.665 92.8564Z" fill="#CCE3FF"/>
<path d="M114.555 104.29C97.7837 104.29 121.535 73.5153 106.041 65C93.9875 77.1616 101.471 80.3383 108.511 89.5953C113.51 96.1683 118.27 104.29 114.555 104.29Z" fill="#CCE3FF"/>
<path fill-rule="evenodd" clip-rule="evenodd" d="M146.97 112.971C162.591 97.3496 162.591 72.023 146.97 56.402C131.35 40.781 106.023 40.781 90.4019 56.402C74.781 72.023 74.781 97.3496 90.4019 112.971C106.023 128.592 131.35 128.592 146.97 112.971ZM141.314 107.314C153.81 94.8169 153.81 74.5556 141.314 62.0589C128.817 49.5621 108.556 49.5621 96.0588 62.0589C83.562 74.5556 83.562 94.8169 96.0588 107.314C108.556 119.81 128.817 119.81 141.314 107.314Z" fill="#4D9CFF"/>
<rect x="138.485" y="110.142" width="8" height="43" rx="4" transform="rotate(-45 138.485 110.142)" fill="#4D9CFF"/>
<defs>
<filter id="filter0_d_6793_34762" x="0.452705" y="11.7363" width="135.095" height="150.818" filterUnits="userSpaceOnUse" color-interpolation-filters="sRGB">
<feFlood flood-opacity="0" result="BackgroundImageFix"/>
<feColorMatrix in="SourceAlpha" type="matrix" values="0 0 0 0 0 0 0 0 0 0 0 0 0 0 0 0 0 0 127 0" result="hardAlpha"/>
<feOffset dy="4"/>
<feGaussianBlur stdDeviation="8"/>
<feComposite in2="hardAlpha" operator="out"/>
<feColorMatrix type="matrix" values="0 0 0 0 0 0 0 0 0 0.156168 0 0 0 0 0.354167 0 0 0 0.25 0"/>
<feBlend mode="normal" in2="BackgroundImageFix" result="effect1_dropShadow_6793_34762"/>
<feBlend mode="normal" in="SourceGraphic" in2="effect1_dropShadow_6793_34762" result="shape"/>
</filter>
<filter id="filter1_d_6793_34762" x="96.4527" y="11.4453" width="135.095" height="150.818" filterUnits="userSpaceOnUse" color-interpolation-filters="sRGB">
<feFlood flood-opacity="0" result="BackgroundImageFix"/>
<feColorMatrix in="SourceAlpha" type="matrix" values="0 0 0 0 0 0 0 0 0 0 0 0 0 0 0 0 0 0 127 0" result="hardAlpha"/>
<feOffset dy="4"/>
<feGaussianBlur stdDeviation="8"/>
<feComposite in2="hardAlpha" operator="out"/>
<feColorMatrix type="matrix" values="0 0 0 0 0 0 0 0 0 0.156863 0 0 0 0 0.352941 0 0 0 0.25 0"/>
<feBlend mode="normal" in2="BackgroundImageFix" result="effect1_dropShadow_6793_34762"/>
<feBlend mode="normal" in="SourceGraphic" in2="effect1_dropShadow_6793_34762" result="shape"/>
</filter>
<filter id="filter2_d_6793_34762" x="54" y="10" width="128" height="152" filterUnits="userSpaceOnUse" color-interpolation-filters="sRGB">
<feFlood flood-opacity="0" result="BackgroundImageFix"/>
<feColorMatrix in="SourceAlpha" type="matrix" values="0 0 0 0 0 0 0 0 0 0 0 0 0 0 0 0 0 0 127 0" result="hardAlpha"/>
<feOffset dy="4"/>
<feGaussianBlur stdDeviation="8"/>
<feComposite in2="hardAlpha" operator="out"/>
<feColorMatrix type="matrix" values="0 0 0 0 0 0 0 0 0 0.156863 0 0 0 0 0.352941 0 0 0 0.25 0"/>
<feBlend mode="normal" in2="BackgroundImageFix" result="effect1_dropShadow_6793_34762"/>
<feBlend mode="normal" in="SourceGraphic" in2="effect1_dropShadow_6793_34762" result="shape"/>
</filter>
</defs>
</svg>
