<svg width="188" height="188" viewBox="0 0 188 188" fill="none" xmlns="http://www.w3.org/2000/svg">
<circle opacity="0.7" cx="94" cy="94" r="94" fill="#EDEDED"/>
<circle cx="72" cy="36" r="4" fill="#EDEDED"/>
<circle cx="180" cy="40" r="5" fill="#EDEDED"/>
<circle cx="186" cy="29" r="2" fill="#EDEDED"/>
<circle cx="8.5" cy="169.5" r="8.5" fill="#EDEDED"/>
<circle cx="11" cy="49" r="5" fill="#EDEDED"/>
<rect x="28" y="51.2182" width="126" height="78.8327" rx="4" fill="#C6C6C6"/>
<g filter="url(#filter0_d_6870_35014)">
<rect width="81.997" height="105.779" rx="2" transform="matrix(0.991365 -0.131129 0.131676 0.991293 33.4116 31.7521)" fill="white"/>
</g>
<rect width="11.2746" height="2.03422" rx="1.01711" transform="matrix(0.991365 -0.131129 0.131676 0.991293 57.7048 90.0965)" fill="#C6C6C6"/>
<rect width="24.5991" height="2.03422" rx="1.01711" transform="matrix(0.991365 -0.131129 0.131676 0.991293 65.03 82.9713)" fill="#C6C6C6"/>
<rect width="16.3994" height="2.03422" rx="1.01711" transform="matrix(0.991365 -0.131129 0.131676 0.991293 55.4597 96.5422)" fill="#EDEDED"/>
<rect width="16.3994" height="2.03422" rx="1.01711" transform="matrix(0.991365 -0.131129 0.131676 0.991293 73.7512 94.1329)" fill="#706F6F"/>
<rect width="10.2496" height="2.03422" rx="1.01711" transform="matrix(0.991365 -0.131129 0.131676 0.991293 102.202 90.3718)" fill="#C6C6C6"/>
<rect width="16.3994" height="2.03422" rx="1.01711" transform="matrix(0.991365 -0.131129 0.131676 0.991293 93.2694 85.3977)" fill="#706F6F"/>
<rect width="8.1997" height="2.03422" rx="1.01711" transform="matrix(0.991365 -0.131129 0.131676 0.991293 92.0403 91.7095)" fill="#EDEDED"/>
<path d="M33.675 33.7347C33.5295 32.6398 34.2993 31.6347 35.3944 31.4899L112.718 21.2623C113.813 21.1174 114.819 21.8876 114.964 22.9826L116.04 31.0825L34.7509 41.8347L33.675 33.7347Z" fill="#C6C6C6"/>
<ellipse rx="1.02496" ry="1.01711" transform="matrix(0.991365 -0.131129 0.131676 0.991293 104.192 27.5109)" fill="#706F6F"/>
<ellipse rx="1.02496" ry="1.01711" transform="matrix(0.991365 -0.131129 0.131676 0.991293 107.242 27.1227)" fill="#706F6F"/>
<ellipse rx="1.02496" ry="1.01711" transform="matrix(0.991365 -0.131129 0.131676 0.991293 110.291 26.7257)" fill="#706F6F"/>
<rect width="2.04993" height="2.03422" rx="1" transform="matrix(0.991365 -0.131129 0.131676 0.991293 59.572 65.2361)" fill="#C6C6C6"/>
<rect width="2.04993" height="2.03422" rx="1" transform="matrix(0.991365 -0.131129 0.131676 0.991293 64.3934 101.528)" fill="#706F6F"/>
<rect width="2.04993" height="2.03422" rx="1" transform="matrix(0.991365 -0.131129 0.131676 0.991293 104.824 102.32)" fill="#C6C6C6"/>
<rect width="2.04993" height="2.03422" rx="1" transform="matrix(0.991365 -0.131129 0.131676 0.991293 51.3958 97.0886)" fill="#706F6F"/>
<rect width="2.04993" height="2.03422" rx="1" transform="matrix(0.991365 -0.131129 0.131676 0.991293 70.9138 88.341)" fill="#706F6F"/>
<rect width="16.3994" height="2.03422" rx="1" transform="matrix(0.991365 -0.131129 0.131676 0.991293 63.636 64.6898)" fill="#C6C6C6"/>
<rect width="16.3994" height="2.03422" rx="1" transform="matrix(0.991365 -0.131129 0.131676 0.991293 80.484 74.7692)" fill="#706F6F"/>
<rect width="16.3994" height="2.03422" rx="1" transform="matrix(0.991365 -0.131129 0.131676 0.991293 97.5459 78.6691)" fill="#EDEDED"/>
<rect width="16.3994" height="2.03422" rx="1" transform="matrix(0.991365 -0.131129 0.131676 0.991293 68.4565 100.982)" fill="#EDEDED"/>
<rect width="16.3994" height="2.03422" rx="1" transform="matrix(0.991365 -0.131129 0.131676 0.991293 86.535 104.752)" fill="#EDEDED"/>
<rect width="13.3245" height="2.03422" rx="1" transform="matrix(0.991365 -0.131129 0.131676 0.991293 103.006 96.4205)" fill="#EDEDED"/>
<rect width="16.3994" height="2.03422" rx="1" transform="matrix(0.991365 -0.131129 0.131676 0.991293 74.9781 87.8079)" fill="#EDEDED"/>
<rect width="4.09985" height="2.03422" rx="1" transform="matrix(0.991365 -0.131129 0.131676 0.991293 81.9276 62.2813)" fill="#C6C6C6"/>
<rect width="4.09985" height="2.03422" rx="1" transform="matrix(0.991365 -0.131129 0.131676 0.991293 86.7479 98.5721)" fill="#C6C6C6"/>
<rect width="16.3994" height="2.03422" rx="1" transform="matrix(0.991365 -0.131129 0.131676 0.991293 43.9514 48.829)" fill="#C6C6C6"/>
<rect width="24.5991" height="2.03422" rx="1" transform="matrix(0.991365 -0.131129 0.131676 0.991293 62.2402 46.3986)" fill="#C6C6C6"/>
<rect width="24.5991" height="2.03422" rx="1" transform="matrix(0.991365 -0.131129 0.131676 0.991293 77.2695 50.5681)" fill="#C6C6C6"/>
<rect width="16.3994" height="2.03422" rx="1" transform="matrix(0.991365 -0.131129 0.131676 0.991293 59.6917 120.618)" fill="#706F6F"/>
<rect width="8.1997" height="2.03422" rx="1" transform="matrix(0.991365 -0.131129 0.131676 0.991293 44.7544 54.8738)" fill="#C6C6C6"/>
<rect width="8.1997" height="2.03422" rx="1" transform="matrix(0.991365 -0.131129 0.131676 0.991293 98.7737 72.3494)" fill="#C6C6C6"/>
<rect width="8.1997" height="2.03422" rx="1" transform="matrix(0.991365 -0.131129 0.131676 0.991293 92.8453 97.7675)" fill="#EDEDED"/>
<rect width="8.1997" height="2.03422" rx="1" transform="matrix(0.991365 -0.131129 0.131676 0.991293 88.6587 42.9019)" fill="#EDEDED"/>
<rect width="16.3994" height="2.03422" rx="1" transform="matrix(0.991365 -0.131129 0.131676 0.991293 57.7502 59.3024)" fill="#EDEDED"/>
<rect width="16.3994" height="2.03422" rx="1" transform="matrix(0.991365 -0.131129 0.131676 0.991293 80.1082 56.367)" fill="#EDEDED"/>
<rect width="8.1997" height="2.03422" rx="1" transform="matrix(0.991365 -0.131129 0.131676 0.991293 58.887 114.563)" fill="#C6C6C6"/>
<rect width="20.4993" height="2.03422" rx="1" transform="matrix(0.991365 -0.131129 0.131676 0.991293 54.9159 53.5343)" fill="#EDEDED"/>
<rect width="20.4993" height="2.03422" rx="1" transform="matrix(0.991365 -0.131129 0.131676 0.991293 69.0475 113.212)" fill="#EDEDED"/>
<rect width="20.4993" height="2.03422" rx="1" transform="matrix(0.991365 -0.131129 0.131676 0.991293 77.9805 118.193)" fill="#EDEDED"/>
<rect width="2.04993" height="2.03422" rx="1" transform="matrix(0.991365 -0.131129 0.131676 0.991293 100.335 115.239)" fill="#C6C6C6"/>
<rect width="6.14977" height="2.03422" rx="1" transform="matrix(0.991365 -0.131129 0.131676 0.991293 104.4 114.702)" fill="#C6C6C6"/>
<rect width="8.1997" height="2.03422" rx="1" transform="matrix(0.991365 -0.131129 0.131676 0.991293 91.4031 110.269)" fill="#706F6F"/>
<rect width="4.09985" height="2.03422" rx="1" transform="matrix(0.991365 -0.131129 0.131676 0.991293 51.6565 60.1298)" fill="#C6C6C6"/>
<rect width="4.09985" height="2.03422" rx="1" transform="matrix(0.991365 -0.131129 0.131676 0.991293 98.8197 41.5589)" fill="#C6C6C6"/>
<rect width="2.04993" height="2.03422" rx="1" transform="matrix(0.991365 -0.131129 0.131676 0.991293 76.0416 56.8931)" fill="#C6C6C6"/>
<rect width="11.2746" height="2.03422" rx="1" transform="matrix(0.991365 -0.131129 0.131676 0.991293 46.3635 66.9836)" fill="#C6C6C6"/>
<rect width="11.2746" height="2.03422" rx="1" transform="matrix(0.991365 -0.131129 0.131676 0.991293 51.183 103.269)" fill="#C6C6C6"/>
<rect width="16.3994" height="2.03422" rx="1" transform="matrix(0.991365 -0.131129 0.131676 0.991293 52.2446 72.3428)" fill="#EDEDED"/>
<rect width="16.3994" height="2.03422" rx="1" transform="matrix(0.991365 -0.131129 0.131676 0.991293 101.565 108.93)" fill="#C6C6C6"/>
<rect width="16.3994" height="2.03422" rx="1" transform="matrix(0.991365 -0.131129 0.131676 0.991293 80.6987 68.6002)" fill="#EDEDED"/>
<rect width="13.3245" height="2.03422" rx="1" transform="matrix(0.991365 -0.131129 0.131676 0.991293 98.1832 60.1166)" fill="#706F6F"/>
<rect width="24.5991" height="2.03422" rx="1" transform="matrix(0.991365 -0.131129 0.131676 0.991293 47.9681 79.0653)" fill="#EDEDED"/>
<rect width="24.5991" height="2.03422" rx="1" transform="matrix(0.991365 -0.131129 0.131676 0.991293 54.0192 109.054)" fill="#EDEDED"/>
<rect width="4.09985" height="2.03422" rx="1" transform="matrix(0.991365 -0.131129 0.131676 0.991293 74.3872 75.5729)" fill="#EDEDED"/>
<rect width="4.09985" height="2.03422" rx="1" transform="matrix(0.991365 -0.131129 0.131676 0.991293 80.4386 105.563)" fill="#706F6F"/>
<rect width="4.09985" height="2.03422" rx="1" transform="matrix(0.991365 -0.131129 0.131676 0.991293 53.5942 121.418)" fill="#706F6F"/>
<rect width="4.09985" height="2.03422" rx="1" transform="matrix(0.991365 -0.131129 0.131676 0.991293 48.774 85.1338)" fill="#706F6F"/>
<rect width="4.09985" height="2.03422" rx="1" transform="matrix(0.991365 -0.131129 0.131676 0.991293 91.4485 79.4746)" fill="#C6C6C6"/>
<rect width="8.1997" height="2.03422" rx="1" transform="matrix(0.991365 -0.131129 0.131676 0.991293 54.8684 84.3099)" fill="#C6C6C6"/>
<rect width="8.1997" height="2.03422" rx="1" transform="matrix(0.991365 -0.131129 0.131676 0.991293 70.5342 69.9221)" fill="#C6C6C6"/>
<rect width="8.1997" height="2.03422" rx="1" transform="matrix(0.991365 -0.131129 0.131676 0.991293 88.0209 61.4513)" fill="#C6C6C6"/>
<g filter="url(#filter1_d_6870_35014)">
<rect width="79.9996" height="103.78" rx="2" transform="matrix(0.998707 0.0508305 -0.0510459 0.998696 65.8719 33.2563)" fill="white"/>
</g>
<path d="M80.622 89.4615L74.9529 90.6717L130.88 93.5182L132.102 69.6001L129.153 72.4475L123.484 73.6578L119.137 76.434L109.273 77.4308L100.808 78.4987L93.5112 84.1224L86.4439 85.2615L80.622 89.4615Z" fill="#706F6F"/>
<path d="M109.121 80.4205L100.579 82.9833L93.435 85.6173L87.7659 86.8275L83.3803 90.3512L80.5458 90.9563L130.88 93.5182L131.95 72.5898L128.924 76.9321L123.255 78.1424L118.908 80.9187L109.121 80.4205Z" fill="#EDEDED"/>
<path d="M93.3588 87.1122L83.3424 91.0987L130.88 93.5182L131.492 81.5591L128.542 84.4066L122.95 84.1219L118.679 85.4033L108.892 84.9052L100.426 85.9731L93.3588 87.1122Z" fill="#C6C6C6"/>
<rect width="21.9999" height="3.99155" rx="1.99578" transform="matrix(0.998707 0.0508305 -0.0510459 0.998696 77.2451 45.8253)" fill="#C6C6C6"/>
<rect width="55.9997" height="1.99578" rx="0.997888" transform="matrix(0.998707 0.0508305 -0.0510459 0.998696 76.8376 53.798)" fill="#EDEDED"/>
<rect width="52.9997" height="1.99578" rx="0.997888" transform="matrix(0.998707 0.0508305 -0.0510459 0.998696 76.6339 57.7843)" fill="#EDEDED"/>
<rect width="24.9999" height="1.99578" rx="0.997888" transform="matrix(0.998707 0.0508305 -0.0510459 0.998696 76.4301 61.7707)" fill="#EDEDED"/>
<ellipse rx="11.9999" ry="11.9747" transform="matrix(0.998707 0.0508305 -0.0510459 0.998696 85.8166 113.207)" fill="#EDEDED"/>
<path fill-rule="evenodd" clip-rule="evenodd" d="M97.8011 113.817C98.1387 107.212 93.0468 101.584 86.428 101.248L85.8167 113.207L97.8011 113.817Z" fill="#706F6F"/>
<path fill-rule="evenodd" clip-rule="evenodd" d="M97.8011 113.817C97.682 116.145 96.9041 118.284 95.6567 120.063L85.8167 113.207L97.8011 113.817Z" fill="#C6C6C6"/>
<ellipse rx="7.49996" ry="7.48416" transform="matrix(0.998707 0.0508305 -0.0510459 0.998696 85.8171 113.207)" fill="white"/>
<ellipse rx="0.999995" ry="0.997888" transform="matrix(0.998707 0.0508305 -0.0510459 0.998696 104.741 115.169)" fill="#C6C6C6"/>
<ellipse rx="0.999995" ry="0.997888" transform="matrix(0.998707 0.0508305 -0.0510459 0.998696 105.047 109.189)" fill="#C6C6C6"/>
<ellipse rx="0.999995" ry="0.997888" transform="matrix(0.998707 0.0508305 -0.0510459 0.998696 104.435 121.148)" fill="#C6C6C6"/>
<rect width="21.9999" height="1.99578" rx="0.997888" transform="matrix(0.998707 0.0508305 -0.0510459 0.998696 108.094 108.345)" fill="#EDEDED"/>
<rect width="21.9999" height="1.99578" rx="0.997888" transform="matrix(0.998707 0.0508305 -0.0510459 0.998696 107.788 114.325)" fill="#EDEDED"/>
<rect width="21.9999" height="1.99578" rx="0.997888" transform="matrix(0.998707 0.0508305 -0.0510459 0.998696 107.482 120.304)" fill="#EDEDED"/>
<g filter="url(#filter2_d_6870_35014)">
<path d="M17.3696 95.7922C19.046 104.108 24.2275 134.043 25.7515 143.19C27.2754 152.337 32.9598 154 38.3242 154H147.288C147.288 154 155.669 154 157.346 145.685C159.016 137.398 169.012 82.8612 170.739 73.4358L170.757 73.3407C172.128 65.8568 167.404 64.1937 164.051 64.1937H113.76C112.084 64.1937 109.249 63.9596 104.54 67.5199C100.309 70.7198 85.403 81.6017 82.4283 83.7722C82.0861 84.0219 81.6976 84.1507 81.274 84.1507H26.5896C19.8842 84.1507 15.6933 87.4768 17.3696 95.7922Z" fill="#EDEDED"/>
</g>
<g filter="url(#filter3_d_6870_35014)">
<circle cx="124" cy="121" r="44" fill="white"/>
</g>
<path d="M109 106L139 136" stroke="#FF937E" stroke-width="8" stroke-linecap="round"/>
<path d="M139 106L109 136" stroke="#FF937E" stroke-width="8" stroke-linecap="round"/>
<defs>
<filter id="filter0_d_6870_35014" x="17.6573" y="9.24476" width="126.726" height="147.121" filterUnits="userSpaceOnUse" color-interpolation-filters="sRGB">
<feFlood flood-opacity="0" result="BackgroundImageFix"/>
<feColorMatrix in="SourceAlpha" type="matrix" values="0 0 0 0 0 0 0 0 0 0 0 0 0 0 0 0 0 0 127 0" result="hardAlpha"/>
<feOffset dy="4"/>
<feGaussianBlur stdDeviation="8"/>
<feComposite in2="hardAlpha" operator="out"/>
<feColorMatrix type="matrix" values="0 0 0 0 0 0 0 0 0 0.156863 0 0 0 0 0.352941 0 0 0 0.25 0"/>
<feBlend mode="normal" in2="BackgroundImageFix" result="effect1_dropShadow_6870_35014"/>
<feBlend mode="normal" in="SourceGraphic" in2="effect1_dropShadow_6870_35014" result="shape"/>
</filter>
<filter id="filter1_d_6870_35014" x="44.6738" y="21.3553" width="116.995" height="139.513" filterUnits="userSpaceOnUse" color-interpolation-filters="sRGB">
<feFlood flood-opacity="0" result="BackgroundImageFix"/>
<feColorMatrix in="SourceAlpha" type="matrix" values="0 0 0 0 0 0 0 0 0 0 0 0 0 0 0 0 0 0 127 0" result="hardAlpha"/>
<feOffset dy="4"/>
<feGaussianBlur stdDeviation="8"/>
<feComposite in2="hardAlpha" operator="out"/>
<feColorMatrix type="matrix" values="0 0 0 0 0 0 0 0 0 0.156168 0 0 0 0 0.354167 0 0 0 0.25 0"/>
<feBlend mode="normal" in2="BackgroundImageFix" result="effect1_dropShadow_6870_35014"/>
<feBlend mode="normal" in="SourceGraphic" in2="effect1_dropShadow_6870_35014" result="shape"/>
</filter>
<filter id="filter2_d_6870_35014" x="1" y="52.1906" width="186" height="121.809" filterUnits="userSpaceOnUse" color-interpolation-filters="sRGB">
<feFlood flood-opacity="0" result="BackgroundImageFix"/>
<feColorMatrix in="SourceAlpha" type="matrix" values="0 0 0 0 0 0 0 0 0 0 0 0 0 0 0 0 0 0 127 0" result="hardAlpha"/>
<feOffset dy="4"/>
<feGaussianBlur stdDeviation="8"/>
<feComposite in2="hardAlpha" operator="out"/>
<feColorMatrix type="matrix" values="0 0 0 0 0.3125 0 0 0 0 0.3125 0 0 0 0 0.3125 0 0 0 0.33 0"/>
<feBlend mode="normal" in2="BackgroundImageFix" result="effect1_dropShadow_6870_35014"/>
<feBlend mode="normal" in="SourceGraphic" in2="effect1_dropShadow_6870_35014" result="shape"/>
</filter>
<filter id="filter3_d_6870_35014" x="64" y="65" width="120" height="120" filterUnits="userSpaceOnUse" color-interpolation-filters="sRGB">
<feFlood flood-opacity="0" result="BackgroundImageFix"/>
<feColorMatrix in="SourceAlpha" type="matrix" values="0 0 0 0 0 0 0 0 0 0 0 0 0 0 0 0 0 0 127 0" result="hardAlpha"/>
<feOffset dy="4"/>
<feGaussianBlur stdDeviation="8"/>
<feComposite in2="hardAlpha" operator="out"/>
<feColorMatrix type="matrix" values="0 0 0 0 0.3125 0 0 0 0 0.3125 0 0 0 0 0.3125 0 0 0 0.33 0"/>
<feBlend mode="normal" in2="BackgroundImageFix" result="effect1_dropShadow_6870_35014"/>
<feBlend mode="normal" in="SourceGraphic" in2="effect1_dropShadow_6870_35014" result="shape"/>
</filter>
</defs>
</svg>
