<svg width="185" height="187" viewBox="0 0 185 187" fill="none" xmlns="http://www.w3.org/2000/svg">
<circle cx="94" cy="103" r="84" fill="#FFDFD9"/>
<circle cx="72" cy="37" r="4" fill="#FFDFD9"/>
<circle cx="65" cy="29" r="2" fill="#FFDFD9"/>
<circle cx="175" cy="49" r="5" fill="#FFDFD9"/>
<circle cx="183" cy="38" r="2" fill="#FFDFD9"/>
<circle cx="8.5" cy="171.5" r="8.5" fill="#FFDFD9"/>
<circle cx="14" cy="55" r="4" fill="#FFDFD9"/>
<g filter="url(#filter0_d_6830_34691)">
<rect x="39" y="12" width="112" height="144" rx="2" fill="white"/>
</g>
<path d="M39 14C39 12.8954 39.8954 12 41 12H149C150.105 12 151 12.8954 151 14V26H39V14Z" fill="#FFBFB3"/>
<circle cx="134" cy="19" r="2" fill="#FF937E"/>
<circle cx="139" cy="19" r="2" fill="#FF937E"/>
<circle cx="144" cy="19" r="2" fill="#FF937E"/>
<rect x="50" y="37" width="22" height="3" rx="1.5" fill="#FF937E"/>
<rect x="50" y="44" width="11" height="3" rx="1.5" fill="#FFBFB3"/>
<rect x="50" y="79" width="26" height="3" rx="1.5" fill="#FFBFB3"/>
<rect x="50" y="58" width="15" height="3" rx="1.5" fill="#FFBFB3"/>
<rect x="56" y="65" width="17" height="3" rx="1.5" fill="#FFDFD9"/>
<rect x="50" y="72" width="33" height="3" rx="1.5" fill="#FFDFD9"/>
<rect x="76" y="58" width="15" height="3" rx="1.5" fill="#FFBFB3"/>
<rect x="77" y="65" width="15" height="3" rx="1.5" fill="#FFBFB3"/>
<rect x="87" y="72" width="5" height="3" rx="1.5" fill="#FF937E"/>
<rect x="58" y="51" width="6" height="3" rx="1.5" fill="#FF937E"/>
<rect x="123" y="51" width="6" height="3" rx="1.5" fill="#FF937E"/>
<rect x="68" y="51" width="21" height="3" rx="1.5" fill="#FFDFD9"/>
<rect x="93" y="51" width="3" height="3" rx="1.5" fill="#FFBFB3"/>
<rect x="100" y="51" width="19" height="3" rx="1.5" fill="#FFDFD9"/>
<rect x="65" y="44" width="26" height="3" rx="1.5" fill="#FFDFD9"/>
<rect x="80" y="79" width="26" height="3" rx="1.5" fill="#FFDFD9"/>
<rect x="69" y="58" width="3" height="3" rx="1.5" fill="#FF937E"/>
<rect x="95" y="44" width="26" height="3" rx="1.5" fill="#FFBFB3"/>
<rect x="110" y="79" width="10" height="3" rx="1.5" fill="#FF937E"/>
<rect x="95" y="58" width="8" height="3" rx="1.5" fill="#FF937E"/>
<rect x="107" y="58" width="12" height="3" rx="1.5" fill="#FFBFB3"/>
<rect x="96" y="65" width="31" height="3" rx="1.5" fill="#FFDFD9"/>
<rect x="96" y="72" width="20" height="3" rx="1.5" fill="#FFDFD9"/>
<rect x="120" y="72" width="20" height="3" rx="1.5" fill="#FFBFB3"/>
<rect x="123" y="58" width="16" height="3" rx="1.5" fill="#FFDFD9"/>
<rect x="76" y="37" width="32" height="3" rx="1.5" fill="#FFBFB3"/>
<rect x="112" y="37" width="12" height="3" rx="1.5" fill="#FFDFD9"/>
<rect x="128" y="37" width="6" height="3" rx="1.5" fill="#FFBFB3"/>
<mask id="path-41-inside-1_6830_34691" fill="white">
<rect x="50" y="93" width="90" height="51" rx="2"/>
</mask>
<rect x="50" y="93" width="90" height="51" rx="2" stroke="#FFDFD9" stroke-width="6" mask="url(#path-41-inside-1_6830_34691)"/>
<rect x="71" y="96" width="3" height="45" fill="#FFDFD9"/>
<rect x="53" y="109" width="84" height="3" fill="#FFDFD9"/>
<rect x="53" y="125" width="84" height="3" fill="#FFDFD9"/>
<rect x="92" y="96" width="3" height="45" fill="#FFDFD9"/>
<rect x="113" y="96" width="3" height="45" fill="#FFDFD9"/>
<path fill-rule="evenodd" clip-rule="evenodd" d="M111.875 114.118C111.875 101.35 122.245 91 135.037 91C147.829 91 158.199 101.35 158.199 114.118V123.828H159.588C163.682 123.828 167 127.14 167 131.226V153.882C167 166.65 156.63 177 143.838 177H127.162C114.37 177 104 166.65 104 153.882V131.226C104 127.14 107.318 123.828 111.412 123.828H111.875V114.118ZM150.787 123.828V114.581C150.787 105.898 143.735 98.8602 135.037 98.8602C126.338 98.8602 119.287 105.898 119.287 114.581V123.828H150.787Z" fill="#FF937E"/>
<path d="M143 143.407C143 146.149 141.492 148.543 139.25 149.824V157.296C139.25 159.342 137.571 161 135.5 161C133.429 161 131.75 159.342 131.75 157.296V149.824C129.508 148.543 128 146.149 128 143.407C128 139.316 131.358 136 135.5 136C139.642 136 143 139.316 143 143.407Z" fill="#F75435"/>
<defs>
<filter id="filter0_d_6830_34691" x="23" y="0" width="144" height="176" filterUnits="userSpaceOnUse" color-interpolation-filters="sRGB">
<feFlood flood-opacity="0" result="BackgroundImageFix"/>
<feColorMatrix in="SourceAlpha" type="matrix" values="0 0 0 0 0 0 0 0 0 0 0 0 0 0 0 0 0 0 127 0" result="hardAlpha"/>
<feOffset dy="4"/>
<feGaussianBlur stdDeviation="8"/>
<feComposite in2="hardAlpha" operator="out"/>
<feColorMatrix type="matrix" values="0 0 0 0 0.5875 0 0 0 0 0.156404 0 0 0 0 0.0744168 0 0 0 0.25 0"/>
<feBlend mode="normal" in2="BackgroundImageFix" result="effect1_dropShadow_6830_34691"/>
<feBlend mode="normal" in="SourceGraphic" in2="effect1_dropShadow_6830_34691" result="shape"/>
</filter>
</defs>
</svg>
