<svg width="196" height="191" viewBox="0 0 196 191" fill="none" xmlns="http://www.w3.org/2000/svg">
<circle cx="94" cy="103" r="84" fill="#EDEDED"/>
<circle cx="72" cy="37" r="4" fill="#EDEDED"/>
<circle cx="65" cy="29" r="2" fill="#EDEDED"/>
<circle cx="175" cy="49" r="5" fill="#EDEDED"/>
<circle cx="183" cy="38" r="2" fill="#EDEDED"/>
<circle cx="8.5" cy="171.5" r="8.5" fill="#EDEDED"/>
<circle cx="14" cy="55" r="4" fill="#EDEDED"/>
<g filter="url(#filter0_d_6847_34800)">
<rect x="39" y="12" width="112" height="144" rx="2" fill="white"/>
</g>
<path d="M39 14C39 12.8954 39.8954 12 41 12H149C150.105 12 151 12.8954 151 14V26H39V14Z" fill="#C6C6C6"/>
<circle cx="134" cy="19" r="2" fill="#706F6F"/>
<circle cx="139" cy="19" r="2" fill="#706F6F"/>
<circle cx="144" cy="19" r="2" fill="#706F6F"/>
<rect x="50" y="37" width="22" height="3" rx="1.5" fill="#C6C6C6"/>
<rect x="50" y="44" width="11" height="3" rx="1.5" fill="#C6C6C6"/>
<rect x="50" y="79" width="26" height="3" rx="1.5" fill="#C6C6C6"/>
<rect x="50" y="58" width="15" height="3" rx="1.5" fill="#C6C6C6"/>
<rect x="56" y="65" width="17" height="3" rx="1.5" fill="#EDEDED"/>
<rect x="50" y="72" width="33" height="3" rx="1.5" fill="#EDEDED"/>
<rect x="76" y="58" width="15" height="3" rx="1.5" fill="#C6C6C6"/>
<rect x="77" y="65" width="15" height="3" rx="1.5" fill="#C6C6C6"/>
<rect x="87" y="72" width="5" height="3" rx="1.5" fill="#706F6F"/>
<rect x="58" y="51" width="6" height="3" rx="1.5" fill="#C6C6C6"/>
<rect x="123" y="51" width="6" height="3" rx="1.5" fill="#C6C6C6"/>
<rect x="68" y="51" width="21" height="3" rx="1.5" fill="#EDEDED"/>
<rect x="93" y="51" width="3" height="3" rx="1.5" fill="#C6C6C6"/>
<rect x="100" y="51" width="19" height="3" rx="1.5" fill="#EDEDED"/>
<rect x="65" y="44" width="26" height="3" rx="1.5" fill="#EDEDED"/>
<rect x="80" y="79" width="26" height="3" rx="1.5" fill="#EDEDED"/>
<rect x="69" y="58" width="3" height="3" rx="1.5" fill="#706F6F"/>
<rect x="95" y="44" width="26" height="3" rx="1.5" fill="#C6C6C6"/>
<rect x="110" y="79" width="10" height="3" rx="1.5" fill="#706F6F"/>
<rect x="95" y="58" width="8" height="3" rx="1.5" fill="#706F6F"/>
<rect x="107" y="58" width="12" height="3" rx="1.5" fill="#C6C6C6"/>
<rect x="96" y="65" width="31" height="3" rx="1.5" fill="#EDEDED"/>
<rect x="96" y="72" width="20" height="3" rx="1.5" fill="#EDEDED"/>
<rect x="120" y="72" width="20" height="3" rx="1.5" fill="#C6C6C6"/>
<rect x="123" y="58" width="16" height="3" rx="1.5" fill="#EDEDED"/>
<rect x="76" y="37" width="32" height="3" rx="1.5" fill="#EDEDED"/>
<rect x="112" y="37" width="12" height="3" rx="1.5" fill="#EDEDED"/>
<rect x="128" y="37" width="6" height="3" rx="1.5" fill="#C6C6C6"/>
<mask id="path-41-inside-1_6847_34800" fill="white">
<rect x="50" y="93" width="90" height="51" rx="2"/>
</mask>
<rect x="50" y="93" width="90" height="51" rx="2" stroke="#EDEDED" stroke-width="6" mask="url(#path-41-inside-1_6847_34800)"/>
<rect x="71" y="96" width="3" height="45" fill="#EDEDED"/>
<rect x="53" y="109" width="84" height="3" fill="#EDEDED"/>
<rect x="53" y="125" width="84" height="3" fill="#EDEDED"/>
<rect x="92" y="96" width="3" height="45" fill="#EDEDED"/>
<rect x="113" y="96" width="3" height="45" fill="#EDEDED"/>
<circle cx="95.8822" cy="91" r="48" transform="rotate(-45 95.8822 91)" fill="#706F6F"/>
<circle cx="95.8823" cy="91" r="40" fill="white"/>
<rect x="122.045" y="122.702" width="8" height="43" rx="4" transform="rotate(-45 122.045 122.702)" fill="#706F6F"/>
<ellipse cx="80.1104" cy="89.0495" rx="4.5" ry="5" fill="#706F6F"/>
<path d="M121.972 78.4201C122.32 79.1721 121.992 80.0635 121.24 80.4111C120.488 80.7587 119.596 80.4309 119.249 79.6789L121.972 78.4201ZM110.744 75.0921C109.916 75.1124 109.228 74.4576 109.207 73.6294C109.187 72.8012 109.842 72.1133 110.67 72.093L110.744 75.0921ZM116.61 75.0495L117.394 73.7702L116.61 75.0495ZM120.61 79.0495C119.249 79.6789 119.249 79.6795 119.249 79.68C119.249 79.6802 119.25 79.6807 119.25 79.681C119.25 79.6817 119.25 79.6823 119.251 79.6829C119.251 79.6841 119.252 79.6852 119.252 79.6861C119.253 79.688 119.254 79.6894 119.254 79.6903C119.255 79.692 119.255 79.6918 119.254 79.6897C119.252 79.6854 119.246 79.6735 119.236 79.6546C119.216 79.6168 119.179 79.5509 119.125 79.4615C119.017 79.2828 118.837 79.0112 118.57 78.6833C118.039 78.0284 117.165 77.1476 115.827 76.3288L117.394 73.7702C119.056 74.7881 120.182 75.9073 120.9 76.7933C121.259 77.2357 121.517 77.6198 121.689 77.9041C121.776 78.0463 121.841 78.1637 121.887 78.2513C121.91 78.2952 121.929 78.3315 121.943 78.3599C121.95 78.374 121.956 78.3862 121.961 78.3963C121.963 78.4013 121.965 78.4058 121.967 78.4098C121.968 78.4118 121.969 78.4136 121.97 78.4153C121.97 78.4162 121.97 78.417 121.971 78.4178C121.971 78.4182 121.971 78.4188 121.971 78.419C121.972 78.4196 121.972 78.4201 120.61 79.0495ZM115.827 76.3288C114.813 75.7081 113.562 75.385 112.496 75.2273C111.975 75.1502 111.524 75.1165 111.207 75.102C111.05 75.0948 110.926 75.0925 110.846 75.0919C110.806 75.0916 110.777 75.0917 110.759 75.0919C110.751 75.092 110.745 75.0921 110.742 75.0921C110.741 75.0921 110.74 75.0922 110.741 75.0921C110.741 75.0921 110.741 75.0921 110.742 75.0921C110.742 75.0921 110.742 75.0921 110.743 75.0921C110.743 75.0921 110.743 75.0921 110.743 75.0921C110.744 75.0921 110.744 75.0921 110.707 73.5925C110.67 72.093 110.671 72.093 110.671 72.093C110.671 72.093 110.671 72.093 110.672 72.0929C110.672 72.0929 110.673 72.0929 110.674 72.0929C110.675 72.0929 110.676 72.0928 110.678 72.0928C110.682 72.0927 110.686 72.0926 110.691 72.0926C110.702 72.0924 110.715 72.0922 110.732 72.092C110.765 72.0917 110.811 72.0916 110.869 72.092C110.984 72.0929 111.145 72.0961 111.344 72.1051C111.741 72.1232 112.295 72.1649 112.935 72.2596C114.191 72.4453 115.892 72.8507 117.394 73.7702L115.827 76.3288Z" fill="#706F6F"/>
<ellipse cx="113.11" cy="89.0495" rx="4.5" ry="5" fill="#706F6F"/>
<ellipse cx="96.6104" cy="106.05" rx="7" ry="4" fill="#706F6F"/>
<path d="M71.3635 78.4201C71.0159 79.1721 71.3437 80.0635 72.0957 80.4111C72.8477 80.7587 73.739 80.4309 74.0867 79.6789L71.3635 78.4201ZM82.5916 75.0921C83.4198 75.1124 84.1076 74.4576 84.128 73.6294C84.1483 72.8012 83.4934 72.1133 82.6653 72.093L82.5916 75.0921ZM76.7251 75.0495L75.9419 73.7702L76.7251 75.0495ZM72.7251 79.0495C74.0867 79.6789 74.0864 79.6795 74.0862 79.68C74.0861 79.6802 74.0858 79.6807 74.0857 79.681C74.0854 79.6817 74.0851 79.6823 74.0848 79.6829C74.0843 79.6841 74.0838 79.6852 74.0833 79.6861C74.0824 79.688 74.0818 79.6894 74.0813 79.6903C74.0805 79.692 74.0806 79.6918 74.0816 79.6897C74.0838 79.6854 74.0897 79.6735 74.0997 79.6546C74.1197 79.6168 74.156 79.5509 74.2102 79.4615C74.3188 79.2828 74.4989 79.0112 74.765 78.6833C75.2963 78.0284 76.1709 77.1476 77.5083 76.3288L75.9419 73.7702C74.2793 74.7881 73.1539 75.9073 72.4352 76.7933C72.0763 77.2357 71.8189 77.6198 71.6462 77.9041C71.5598 78.0463 71.4945 78.1637 71.4481 78.2513C71.425 78.2952 71.4065 78.3315 71.3925 78.3599C71.3855 78.374 71.3796 78.3862 71.3748 78.3963C71.3724 78.4013 71.3702 78.4058 71.3684 78.4098C71.3674 78.4118 71.3666 78.4136 71.3657 78.4153C71.3653 78.4162 71.365 78.417 71.3646 78.4178C71.3644 78.4182 71.3641 78.4188 71.3641 78.419C71.3638 78.4196 71.3635 78.4201 72.7251 79.0495ZM77.5083 76.3288C78.5221 75.7081 79.7733 75.385 80.8396 75.2273C81.3608 75.1502 81.8114 75.1165 82.1281 75.102C82.2859 75.0948 82.409 75.0925 82.4892 75.0919C82.5293 75.0916 82.5586 75.0917 82.576 75.0919C82.5847 75.092 82.5904 75.0921 82.5931 75.0921C82.5944 75.0921 82.595 75.0922 82.5947 75.0921C82.5946 75.0921 82.5943 75.0921 82.5937 75.0921C82.5935 75.0921 82.5932 75.0921 82.5928 75.0921C82.5926 75.0921 82.5923 75.0921 82.5922 75.0921C82.5919 75.0921 82.5916 75.0921 82.6284 73.5925C82.6653 72.093 82.6649 72.093 82.6645 72.093C82.6644 72.093 82.664 72.093 82.6637 72.0929C82.6632 72.0929 82.6625 72.0929 82.6619 72.0929C82.6605 72.0929 82.659 72.0928 82.6572 72.0928C82.6537 72.0927 82.6493 72.0926 82.6442 72.0926C82.6338 72.0924 82.6203 72.0922 82.6035 72.092C82.5701 72.0917 82.5242 72.0916 82.4667 72.092C82.3518 72.0929 82.1906 72.0961 81.9915 72.1051C81.5945 72.1232 81.0409 72.1649 80.4008 72.2596C79.1443 72.4453 77.4438 72.8507 75.9419 73.7702L77.5083 76.3288Z" fill="#706F6F"/>
<defs>
<filter id="filter0_d_6847_34800" x="23" y="0" width="144" height="176" filterUnits="userSpaceOnUse" color-interpolation-filters="sRGB">
<feFlood flood-opacity="0" result="BackgroundImageFix"/>
<feColorMatrix in="SourceAlpha" type="matrix" values="0 0 0 0 0 0 0 0 0 0 0 0 0 0 0 0 0 0 127 0" result="hardAlpha"/>
<feOffset dy="4"/>
<feGaussianBlur stdDeviation="8"/>
<feComposite in2="hardAlpha" operator="out"/>
<feColorMatrix type="matrix" values="0 0 0 0 0.3125 0 0 0 0 0.3125 0 0 0 0 0.3125 0 0 0 0.33 0"/>
<feBlend mode="normal" in2="BackgroundImageFix" result="effect1_dropShadow_6847_34800"/>
<feBlend mode="normal" in="SourceGraphic" in2="effect1_dropShadow_6847_34800" result="shape"/>
</filter>
</defs>
</svg>
