<svg width="800" height="500" viewBox="0 0 800 500" fill="none" xmlns="http://www.w3.org/2000/svg">
<mask id="mask0_6990_34336" style="mask-type:alpha" maskUnits="userSpaceOnUse" x="0" y="0" width="800" height="500">
<rect width="800" height="500" fill="url(#paint0_linear_6990_34336)"/>
</mask>
<g mask="url(#mask0_6990_34336)">
<ellipse opacity="0.5" cx="400" cy="250" rx="400" ry="250" fill="#EDEDED"/>
<mask id="mask1_6990_34336" style="mask-type:alpha" maskUnits="userSpaceOnUse" x="0" y="0" width="800" height="500">
<ellipse opacity="0.7" cx="400" cy="250" rx="400" ry="250" fill="#EDEDED"/>
</mask>
<g mask="url(#mask1_6990_34336)">
<path d="M248 397C280.565 392.941 330.595 379.182 363.16 391.358V493H21.5L15.5 387.299C20.9275 387.299 89.777 370 118 370C153.279 370 203 402.608 248 397Z" fill="#FFDFD9"/>
</g>
<mask id="mask2_6990_34336" style="mask-type:alpha" maskUnits="userSpaceOnUse" x="0" y="0" width="800" height="500">
<ellipse cx="400" cy="250" rx="400" ry="250" fill="#EDEDED"/>
</mask>
<g mask="url(#mask2_6990_34336)">
<path d="M417 357C335.587 358.353 174.554 422.974 85 494L524 512L802 420C733.252 410.079 644 405 582 390C516.474 374.147 498.413 355.647 417 357Z" fill="#FFBFB3"/>
</g>
</g>
<g opacity="0.25" filter="url(#filter0_f_6990_34336)">
<path d="M383.182 419.194C381.931 418.627 381.58 418.102 380.342 418.103C379.104 418.105 377.798 418.644 377.905 419.81C378.823 429.842 386.191 427.197 386.891 430.086C393.957 433.357 395.317 428.612 393.183 422.653C389.92 421.473 389.582 422.945 386.678 420.825L383.182 419.194Z" fill="#F75435"/>
</g>
<path d="M383.182 418.194C381.931 417.627 381.58 417.102 380.342 417.103C379.104 417.105 377.798 417.644 377.905 418.81C378.823 428.842 386.191 426.197 386.891 429.086C393.957 432.357 395.317 427.612 393.183 421.653C389.92 420.473 389.582 421.945 386.678 419.825L383.182 418.194Z" fill="#706F6F"/>
<g opacity="0.25" filter="url(#filter1_f_6990_34336)">
<path d="M408.828 424.554C409.356 426.349 408.711 428.419 409.591 430.066C412.491 432.005 416.962 430.796 417.637 427.157C418.007 426.728 418.633 426.672 419.164 426.453C421.463 425.195 423.4 420.041 420.946 418.142C418.892 417.124 417.195 419.417 415.505 420.223C413.234 421.274 411.233 421.098 409.194 422.54L408.801 423.374L408.828 424.554Z" fill="#F75435"/>
</g>
<path d="M408.828 423.554C409.356 425.349 408.711 427.419 409.591 429.066C412.491 431.005 416.962 429.796 417.637 426.157C418.007 425.728 418.633 425.672 419.164 425.453C421.463 424.195 423.4 419.041 420.946 417.142C418.892 416.124 417.195 418.417 415.505 419.223C413.234 420.274 411.233 420.098 409.194 421.54L408.801 422.374L408.828 423.554Z" fill="#706F6F"/>
<path d="M386.62 338.805C386.62 338.805 386.41 342.339 385.946 346.322C384.843 355.768 383.137 366.827 383.927 376.305C385.598 396.344 382.721 423.417 385.704 424.755C392.163 427.652 393.722 424.418 394.102 418.153C394.899 410.388 395.118 397.124 395.388 387.116C397.576 373.562 398.473 371.17 401.741 358.962C403.483 369.024 407.779 379.09 408.353 389.328C408.206 398.707 408.282 408.09 408.763 417.497C408.832 419.418 408.179 421.33 408.67 423.12C409.821 427.324 415.329 425.297 416.689 421.634C417.086 408.841 419.135 397.571 419.71 382.867C419.96 376.471 419.592 365.19 419.156 358.803C418.942 349.538 416.776 338.61 416.776 338.61L416.173 334.123C416.173 334.123 414.837 326.957 414.5 326.659C407.017 323.91 386.315 323.738 386.53 334.884L386.62 338.805Z" fill="#292B36"/>
<path d="M394.237 267.331C394.144 269.718 394.051 272.114 393.957 274.501C390.308 273.752 390.275 279.481 393.952 279.322C394.714 279.775 394.126 285.046 394.024 286.022C393.788 288.297 395.963 285.961 397.886 286.676C405.715 289.038 404.929 287.158 406.208 280.352C409.509 283.173 411.383 273.522 407.09 275.247C407.577 272.042 407.903 268.287 405.808 266.181C402.589 263.671 395.898 263.099 393.826 267.398L394.246 267.339L394.237 267.331Z" fill="#FFBFB3"/>
<path d="M391.81 289.144C392.136 285.381 394.839 284.856 398.964 284.761C407.214 284.571 408.961 288.748 404.011 288.863L391.81 289.144Z" fill="#0171FF"/>
<path d="M390.685 288.24C399.738 283.17 410.603 287.616 418.797 292.511C425.83 297.929 443.528 304.091 438.142 315.35C435.551 319.318 429.096 328.555 423.544 329.428C421.732 329.713 419.907 329.04 418.172 327.41C417.504 326.723 417.329 326.583 418.118 325.058C418.907 323.534 429.156 312.973 425.497 311.077C413.927 304.319 417.447 302.53 415.362 320.583C414.831 323.707 416.088 326.481 416.388 327.018C416.687 327.556 417.115 331.545 417.115 331.545C417.115 331.545 418.172 334.022 418.207 335.521C418.231 336.583 417.674 339.138 417.346 340.54C417.221 341.073 416.692 341.4 416.156 341.283C413.248 340.648 404.457 338.904 400.065 339.982C393.729 342.268 392.215 342.909 386.471 340.584C386.074 340.423 385.826 340.023 385.861 339.596C386.264 334.709 387.223 330.202 386.438 324.305C385.732 318.994 383.632 313.975 382.471 307C370.476 315.35 371.698 319.195 383.382 328.748C387.094 331.163 384.072 332.504 381.971 334.5C381.188 335.244 380.311 335.279 379.382 334.748C371.983 331.361 361.471 326.41 359.252 315.393C361.971 310 366.9 306.302 370.476 301.722C376.567 293.798 381.625 291.222 390.685 288.248L390.685 288.24Z" fill="#4D9CFF"/>
<path d="M381.189 328.927C385.378 332.669 387.89 328.52 391.819 329.239C391.733 331.956 387.246 331.404 386.657 333.803C386.401 334.84 386.672 337.451 385.971 337.5C384.284 335.566 378.968 335.629 377.637 333.01C379.337 332.294 379.938 330.866 381.203 329.525L380.881 328.434L381.189 328.927Z" fill="#FFBFB3"/>
<path d="M417.401 326.695C414.593 328.072 411.342 324.895 408.398 325.376C407.668 327.695 412.978 327.845 413.943 329.606C417.91 334.104 415.794 336.133 422.766 329.196C420.888 328.678 419.172 327.612 417.883 326.147L417.401 326.695Z" fill="#FFBFB3"/>
<path fill-rule="evenodd" clip-rule="evenodd" d="M418.139 327.375C417.498 326.718 417.342 326.558 418.118 325.058C418.299 324.708 418.981 323.879 419.879 322.788C420.2 322.398 420.548 321.974 420.911 321.527L425.417 328.848C424.785 329.132 424.159 329.332 423.544 329.428C421.732 329.713 419.907 329.04 418.172 327.41C418.161 327.398 418.149 327.387 418.139 327.375Z" fill="#4D9CFF"/>
<path fill-rule="evenodd" clip-rule="evenodd" d="M378.649 324.617C379.96 325.879 381.541 327.242 383.382 328.748C386.443 330.739 384.925 332 383.121 333.5C382.737 333.82 382.34 334.15 381.971 334.5C381.188 335.244 380.311 335.279 379.382 334.748C377.389 333.835 375.171 332.81 372.949 331.583L378.649 324.617Z" fill="#4D9CFF"/>
<path fill-rule="evenodd" clip-rule="evenodd" d="M419.083 323.76C419.319 323.468 419.588 323.142 419.879 322.788C420.085 322.538 420.302 322.274 420.527 321.999C421.694 323.889 424.936 325.259 427.255 326.24C427.748 326.449 428.2 326.639 428.581 326.814C427.873 327.391 427.159 327.9 426.445 328.316C423.851 327.645 419.93 325.373 419.083 323.76Z" fill="#CCE3FF"/>
<path fill-rule="evenodd" clip-rule="evenodd" d="M377.924 334.076C377.288 333.78 376.636 333.471 375.974 333.148C376.975 332.498 378.692 331.23 379.668 330.208C379.682 330.193 379.697 330.178 379.711 330.163C380.556 329.279 381.017 328.796 381.471 327.18C381.484 327.183 381.497 327.185 381.51 327.188C381.96 327.571 382.428 327.963 382.916 328.365C383.021 330.192 379.838 333.574 377.924 334.076Z" fill="#CCE3FF"/>
<path d="M399.271 280.899C395.701 279.666 395.232 285.772 392.961 274.995L392.894 274.559C392.159 270.969 391.076 264.795 394.347 263.482C397.693 262.138 396.731 258.65 402.538 260.743C405.035 261.642 407.326 260.781 408.791 263.487C410.517 267.079 409.056 271.034 408.623 274.791C408.528 276.419 407.369 277.329 406.385 278.333C405.401 279.338 405.062 280.766 403.674 281.417C402.286 282.068 400.908 281.465 399.271 280.899Z" fill="#292B36"/>
<path d="M410.971 257C410.707 254.988 410.31 252.995 409.971 251" stroke="#80B8FF" stroke-width="2" stroke-linecap="round"/>
<path d="M413.971 257C415.862 254.567 418.156 252.492 419.971 250" stroke="#80B8FF" stroke-width="2" stroke-linecap="round"/>
<path d="M416.971 260C418.975 260 420.972 260 422.971 260" stroke="#80B8FF" stroke-width="2" stroke-linecap="round"/>
<defs>
<filter id="filter0_f_6990_34336" x="376.899" y="417.103" width="18.2062" height="15.0502" filterUnits="userSpaceOnUse" color-interpolation-filters="sRGB">
<feFlood flood-opacity="0" result="BackgroundImageFix"/>
<feBlend mode="normal" in="SourceGraphic" in2="BackgroundImageFix" result="shape"/>
<feGaussianBlur stdDeviation="0.5" result="effect1_foregroundBlur_6990_34336"/>
</filter>
<filter id="filter1_f_6990_34336" x="407.801" y="416.886" width="15.2845" height="15.0979" filterUnits="userSpaceOnUse" color-interpolation-filters="sRGB">
<feFlood flood-opacity="0" result="BackgroundImageFix"/>
<feBlend mode="normal" in="SourceGraphic" in2="BackgroundImageFix" result="shape"/>
<feGaussianBlur stdDeviation="0.5" result="effect1_foregroundBlur_6990_34336"/>
</filter>
<linearGradient id="paint0_linear_6990_34336" x1="386" y1="8.93552e-08" x2="390" y2="500" gradientUnits="userSpaceOnUse">
<stop offset="0.432308"/>
<stop offset="1" stop-opacity="0"/>
</linearGradient>
</defs>
</svg>
