<svg width="188" height="188" viewBox="0 0 188 188" fill="none" xmlns="http://www.w3.org/2000/svg">
<circle opacity="0.4" cx="94" cy="94" r="94" fill="#FFDFD9"/>
<circle cx="72" cy="36" r="4" fill="#FFDFD9"/>
<circle cx="180" cy="40" r="5" fill="#FFDFD9"/>
<circle cx="186" cy="29" r="2" fill="#FFDFD9"/>
<circle cx="8.5" cy="169.5" r="8.5" fill="#FFDFD9"/>
<circle cx="12" cy="49" r="5" fill="#FFDFD9"/>
<rect x="28" y="52" width="126" height="79" rx="4" fill="#FFBFB3"/>
<g filter="url(#filter0_d_6847_34418)">
<rect x="33.4117" y="32.4927" width="82" height="106" rx="2" transform="rotate(-7.55061 33.4117 32.4927)" fill="white"/>
</g>
<rect x="57.7049" y="90.9609" width="11.275" height="2.03846" rx="1.01923" transform="rotate(-7.55061 57.7049 90.9609)" fill="#FFBFB3"/>
<rect x="65.0301" y="83.8203" width="24.6" height="2.03846" rx="1.01923" transform="rotate(-7.55061 65.0301 83.8203)" fill="#FFBFB3"/>
<rect x="55.4598" y="97.4204" width="16.4" height="2.03846" rx="1.01923" transform="rotate(-7.55061 55.4598 97.4204)" fill="#FFDFD9"/>
<rect x="73.7512" y="95.0059" width="16.4" height="2.03846" rx="1.01923" transform="rotate(-7.55061 73.7512 95.0059)" fill="#FF937E"/>
<rect x="102.202" y="91.2368" width="10.25" height="2.03846" rx="1.01923" transform="rotate(-7.55061 102.202 91.2368)" fill="#FFBFB3"/>
<rect x="93.2695" y="86.252" width="16.4" height="2.03846" rx="1.01923" transform="rotate(-7.55061 93.2695 86.252)" fill="#FF937E"/>
<rect x="92.0403" y="92.5771" width="8.2" height="2.03846" rx="1.01923" transform="rotate(-7.55061 92.0403 92.5771)" fill="#FFDFD9"/>
<path d="M33.6745 34.4753C33.5293 33.3803 34.2993 32.375 35.3943 32.2299L112.718 21.9805C113.813 21.8354 114.818 22.6054 114.963 23.7004L116.04 31.8216L34.751 42.5966L33.6745 34.4753Z" fill="#FFBFB3"/>
<ellipse cx="104.192" cy="28.2424" rx="1.025" ry="1.01923" transform="rotate(-7.55061 104.192 28.2424)" fill="#FF937E"/>
<ellipse cx="107.242" cy="27.8535" rx="1.025" ry="1.01923" transform="rotate(-7.55061 107.242 27.8535)" fill="#FF937E"/>
<ellipse cx="110.291" cy="27.4555" rx="1.025" ry="1.01923" transform="rotate(-7.55061 110.291 27.4555)" fill="#FF937E"/>
<rect x="59.5721" y="66.0479" width="2.05" height="2.03846" rx="1" transform="rotate(-7.55061 59.5721 66.0479)" fill="#FF937E"/>
<rect x="64.3935" y="102.417" width="2.05" height="2.03846" rx="1" transform="rotate(-7.55061 64.3935 102.417)" fill="#FF937E"/>
<rect x="104.824" y="103.21" width="2.05" height="2.03846" rx="1" transform="rotate(-7.55061 104.824 103.21)" fill="#FFBFB3"/>
<rect x="51.3958" y="97.9678" width="2.05" height="2.03846" rx="1" transform="rotate(-7.55061 51.3958 97.9678)" fill="#FF937E"/>
<rect x="70.9139" y="89.2017" width="2.05" height="2.03846" rx="1" transform="rotate(-7.55061 70.9139 89.2017)" fill="#FF937E"/>
<rect x="63.636" y="65.5" width="16.4" height="2.03846" rx="1" transform="rotate(-7.55061 63.636 65.5)" fill="#FF937E"/>
<rect x="80.4841" y="75.6011" width="16.4" height="2.03846" rx="1" transform="rotate(-7.55061 80.4841 75.6011)" fill="#FF937E"/>
<rect x="97.5459" y="79.5093" width="16.4" height="2.03846" rx="1" transform="rotate(-7.55061 97.5459 79.5093)" fill="#FFDFD9"/>
<rect x="68.4566" y="101.87" width="16.4" height="2.03846" rx="1" transform="rotate(-7.55061 68.4566 101.87)" fill="#FFDFD9"/>
<rect x="86.535" y="105.647" width="16.4" height="2.03846" rx="1" transform="rotate(-7.55061 86.535 105.647)" fill="#FFDFD9"/>
<rect x="103.006" y="97.2983" width="13.325" height="2.03846" rx="1" transform="rotate(-7.55061 103.006 97.2983)" fill="#FFDFD9"/>
<rect x="74.9782" y="88.6675" width="16.4" height="2.03846" rx="1" transform="rotate(-7.55061 74.9782 88.6675)" fill="#FFDFD9"/>
<rect x="81.9276" y="63.0864" width="4.1" height="2.03846" rx="1" transform="rotate(-7.55061 81.9276 63.0864)" fill="#FFBFB3"/>
<rect x="86.748" y="99.4546" width="4.1" height="2.03846" rx="1" transform="rotate(-7.55061 86.748 99.4546)" fill="#FFBFB3"/>
<rect x="43.9515" y="49.606" width="16.4" height="2.03846" rx="1" transform="rotate(-7.55061 43.9515 49.606)" fill="#FFBFB3"/>
<rect x="62.2403" y="47.1704" width="24.6" height="2.03846" rx="1" transform="rotate(-7.55061 62.2403 47.1704)" fill="#FF937E"/>
<rect x="77.2696" y="51.3486" width="24.6" height="2.03846" rx="1" transform="rotate(-7.55061 77.2696 51.3486)" fill="#FFBFB3"/>
<rect x="59.6917" y="121.547" width="16.4" height="2.03846" rx="1" transform="rotate(-7.55061 59.6917 121.547)" fill="#FF937E"/>
<rect x="44.7544" y="55.6636" width="8.2" height="2.03846" rx="1" transform="rotate(-7.55061 44.7544 55.6636)" fill="#FFBFB3"/>
<rect x="98.7738" y="73.1763" width="8.2" height="2.03846" rx="1" transform="rotate(-7.55061 98.7738 73.1763)" fill="#FFBFB3"/>
<rect x="92.8455" y="98.6479" width="8.2" height="2.03846" rx="1" transform="rotate(-7.55061 92.8455 98.6479)" fill="#FFDFD9"/>
<rect x="88.6588" y="43.666" width="8.2" height="2.03846" rx="1" transform="rotate(-7.55061 88.6588 43.666)" fill="#FFDFD9"/>
<rect x="57.7503" y="60.1016" width="16.4" height="2.03846" rx="1" transform="rotate(-7.55061 57.7503 60.1016)" fill="#FFDFD9"/>
<rect x="80.1082" y="57.1597" width="16.4" height="2.03846" rx="1" transform="rotate(-7.55061 80.1082 57.1597)" fill="#FFDFD9"/>
<rect x="58.887" y="115.479" width="8.2" height="2.03846" rx="1" transform="rotate(-7.55061 58.887 115.479)" fill="#FFBFB3"/>
<rect x="54.916" y="54.3213" width="20.5" height="2.03846" rx="1" transform="rotate(-7.55061 54.916 54.3213)" fill="#FFDFD9"/>
<rect x="69.0475" y="114.125" width="20.5" height="2.03846" rx="1" transform="rotate(-7.55061 69.0475 114.125)" fill="#FFDFD9"/>
<rect x="77.9805" y="119.117" width="20.5" height="2.03846" rx="1" transform="rotate(-7.55061 77.9805 119.117)" fill="#FFDFD9"/>
<rect x="100.335" y="116.157" width="2.05" height="2.03846" rx="1" transform="rotate(-7.55061 100.335 116.157)" fill="#FFBFB3"/>
<rect x="104.4" y="115.618" width="6.15" height="2.03846" rx="1" transform="rotate(-7.55061 104.4 115.618)" fill="#FFBFB3"/>
<rect x="91.4032" y="111.176" width="8.2" height="2.03846" rx="1" transform="rotate(-7.55061 91.4032 111.176)" fill="#FF937E"/>
<rect x="51.6566" y="60.9307" width="4.1" height="2.03846" rx="1" transform="rotate(-7.55061 51.6566 60.9307)" fill="#FF937E"/>
<rect x="98.8197" y="42.3203" width="4.1" height="2.03846" rx="1" transform="rotate(-7.55061 98.8197 42.3203)" fill="#FFBFB3"/>
<rect x="76.0417" y="57.687" width="2.05" height="2.03846" rx="1" transform="rotate(-7.55061 76.0417 57.687)" fill="#FFBFB3"/>
<rect x="46.3636" y="67.7988" width="11.275" height="2.03846" rx="1" transform="rotate(-7.55061 46.3636 67.7988)" fill="#FFBFB3"/>
<rect x="51.1831" y="104.161" width="11.275" height="2.03846" rx="1" transform="rotate(-7.55061 51.1831 104.161)" fill="#FFBFB3"/>
<rect x="52.2447" y="73.1694" width="16.4" height="2.03846" rx="1" transform="rotate(-7.55061 52.2447 73.1694)" fill="#FFDFD9"/>
<rect x="101.565" y="109.834" width="16.4" height="2.03846" rx="1" transform="rotate(-7.55061 101.565 109.834)" fill="#FFBFB3"/>
<rect x="80.6987" y="69.4189" width="16.4" height="2.03846" rx="1" transform="rotate(-7.55061 80.6987 69.4189)" fill="#FFDFD9"/>
<rect x="98.1833" y="60.9175" width="13.325" height="2.03846" rx="1" transform="rotate(-7.55061 98.1833 60.9175)" fill="#FF937E"/>
<rect x="47.9682" y="79.9062" width="24.6" height="2.03846" rx="1" transform="rotate(-7.55061 47.9682 79.9062)" fill="#FFDFD9"/>
<rect x="54.0193" y="109.958" width="24.6" height="2.03846" rx="1" transform="rotate(-7.55061 54.0193 109.958)" fill="#FFDFD9"/>
<rect x="74.3873" y="76.4062" width="4.1" height="2.03846" rx="1" transform="rotate(-7.55061 74.3873 76.4062)" fill="#FFDFD9"/>
<rect x="80.4387" y="106.46" width="4.1" height="2.03846" rx="1" transform="rotate(-7.55061 80.4387 106.46)" fill="#FF937E"/>
<rect x="53.5943" y="122.349" width="4.1" height="2.03846" rx="1" transform="rotate(-7.55061 53.5943 122.349)" fill="#FF937E"/>
<rect x="48.7742" y="85.9878" width="4.1" height="2.03846" rx="1" transform="rotate(-7.55061 48.7742 85.9878)" fill="#FF937E"/>
<rect x="91.4486" y="80.3164" width="4.1" height="2.03846" rx="1" transform="rotate(-7.55061 91.4486 80.3164)" fill="#FFBFB3"/>
<rect x="54.8684" y="85.1621" width="8.2" height="2.03846" rx="1" transform="rotate(-7.55061 54.8684 85.1621)" fill="#FFBFB3"/>
<rect x="70.5343" y="70.7437" width="8.2" height="2.03846" rx="1" transform="rotate(-7.55061 70.5343 70.7437)" fill="#FFBFB3"/>
<rect x="88.0209" y="62.2549" width="8.2" height="2.03846" rx="1" transform="rotate(-7.55061 88.0209 62.2549)" fill="#FFBFB3"/>
<g filter="url(#filter1_d_6847_34418)">
<rect x="65.8719" y="34" width="80" height="104" rx="2" transform="rotate(2.9198 65.8719 34)" fill="white"/>
</g>
<path d="M80.622 90.3244L74.9529 91.5372L130.88 94.3897L132.102 70.4209L129.153 73.2744L123.484 74.4872L119.137 77.2693L109.273 78.2682L100.808 79.3384L93.5112 84.974L86.4439 86.1155L80.622 90.3244Z" fill="#FF937E"/>
<path d="M109.12 81.2642L100.579 83.8324L93.4349 86.472L87.7658 87.6848L83.3803 91.2159L80.5457 91.8223L130.88 94.3896L131.95 73.4169L128.924 77.7684L123.255 78.9812L118.908 81.7634L109.12 81.2642Z" fill="#FFDFD9"/>
<path d="M93.3588 87.9699L83.3424 91.9649L130.88 94.3895L131.492 82.4051L128.542 85.2586L122.95 84.9733L118.679 86.2574L108.892 85.7583L100.426 86.8284L93.3588 87.9699Z" fill="#FFBFB3"/>
<rect x="77.2451" y="46.5957" width="22" height="4" rx="2" transform="rotate(2.9198 77.2451 46.5957)" fill="#FF937E"/>
<rect x="76.8376" y="54.5854" width="56" height="2" rx="1" transform="rotate(2.9198 76.8376 54.5854)" fill="#FFDFD9"/>
<rect x="76.6339" y="58.5801" width="53" height="2" rx="1" transform="rotate(2.9198 76.6339 58.5801)" fill="#FFDFD9"/>
<rect x="76.4301" y="62.5747" width="25" height="2" rx="1" transform="rotate(2.9198 76.4301 62.5747)" fill="#FFDFD9"/>
<circle cx="85.8167" cy="114.12" r="12" transform="rotate(2.9198 85.8167 114.12)" fill="#FFDFD9"/>
<path fill-rule="evenodd" clip-rule="evenodd" d="M86.4279 102.136L85.8167 114.12L97.8011 114.731C98.1387 108.113 93.0468 102.473 86.4279 102.136Z" fill="#FF937E"/>
<path fill-rule="evenodd" clip-rule="evenodd" d="M97.8011 114.731C97.6821 117.065 96.9042 119.208 95.6567 120.991L85.8167 114.12L97.8011 114.731Z" fill="#FFBFB3"/>
<circle cx="85.8172" cy="114.12" r="7.5" transform="rotate(2.9198 85.8172 114.12)" fill="white"/>
<circle cx="104.741" cy="116.087" r="1" transform="rotate(2.9198 104.741 116.087)" fill="#FFBFB3"/>
<circle cx="105.047" cy="110.095" r="1" transform="rotate(2.9198 105.047 110.095)" fill="#FFBFB3"/>
<circle cx="104.435" cy="122.079" r="1" transform="rotate(2.9198 104.435 122.079)" fill="#FFBFB3"/>
<rect x="108.094" y="109.249" width="22" height="2" rx="1" transform="rotate(2.9198 108.094 109.249)" fill="#FFDFD9"/>
<rect x="107.788" y="115.241" width="22" height="2" rx="1" transform="rotate(2.9198 107.788 115.241)" fill="#FFDFD9"/>
<rect x="107.482" y="121.233" width="22" height="2" rx="1" transform="rotate(2.9198 107.482 121.233)" fill="#FFDFD9"/>
<g filter="url(#filter2_d_6847_34418)">
<path d="M17.3696 96.6687C19.046 105.002 24.2275 135.001 25.7515 144.167C27.2754 153.333 32.9598 155 38.3242 155H147.288C147.288 155 155.669 155 157.346 146.667C159.016 138.362 169.012 83.7102 170.739 74.2648L170.757 74.1695C172.128 66.6698 167.404 65.0032 164.051 65.0032H113.76C112.084 65.0032 109.249 64.7685 104.54 68.3364C100.309 71.5429 85.4046 82.4469 82.4288 84.6229C82.0863 84.8733 81.6973 85.0025 81.2731 85.0025H26.5896C19.8842 85.0025 15.6933 88.3357 17.3696 96.6687Z" fill="#FFDFD9"/>
</g>
<path fill-rule="evenodd" clip-rule="evenodd" d="M118 108.344C118 93.7947 129.851 82 144.471 82C159.09 82 170.941 93.7947 170.941 108.344V119.409H172.529C177.208 119.409 181 123.183 181 127.839V153.656C181 168.205 169.149 180 154.529 180H135.471C120.851 180 109 168.205 109 153.656V127.839C109 123.183 112.792 119.409 117.471 119.409H118V108.344ZM162.471 119.409V108.871C162.471 98.9774 154.412 90.957 144.471 90.957C134.529 90.957 126.471 98.9774 126.471 108.871V119.409H162.471Z" fill="#FF937E"/>
<path d="M153 142C153 144.947 151.391 147.482 149 148.858L149 157C149 159.199 147.209 161 145 161C142.791 161 141 159.199 141 157L141 148.858C138.609 147.482 137 144.947 137 142C137 137.603 140.582 134 145 134C149.418 134 153 137.603 153 142Z" fill="#F75435"/>
<path d="M94.5987 125.071C93.699 129.284 98.3344 136 98.3344 136C89.0458 136 83.2738 129.958 81.1896 124.03C77.542 113.099 92.2118 100 101.5 100C101.5 100 100.376 116.859 94.5987 125.071Z" fill="#FFBFB3"/>
<path d="M81.8996 135.361C66.8054 135.361 88.1819 107.664 74.237 100C63.3888 110.945 70.1241 113.804 76.46 122.136C80.9594 128.051 85.2433 135.361 81.8996 135.361Z" fill="#FFBFB3"/>
<defs>
<filter id="filter0_d_6847_34418" x="17.6569" y="9.96289" width="126.727" height="147.365" filterUnits="userSpaceOnUse" color-interpolation-filters="sRGB">
<feFlood flood-opacity="0" result="BackgroundImageFix"/>
<feColorMatrix in="SourceAlpha" type="matrix" values="0 0 0 0 0 0 0 0 0 0 0 0 0 0 0 0 0 0 127 0" result="hardAlpha"/>
<feOffset dy="4"/>
<feGaussianBlur stdDeviation="8"/>
<feComposite in2="hardAlpha" operator="out"/>
<feColorMatrix type="matrix" values="0 0 0 0 0 0 0 0 0 0.156863 0 0 0 0 0.352941 0 0 0 0.25 0"/>
<feBlend mode="normal" in2="BackgroundImageFix" result="effect1_dropShadow_6847_34418"/>
<feBlend mode="normal" in="SourceGraphic" in2="effect1_dropShadow_6847_34418" result="shape"/>
</filter>
<filter id="filter1_d_6847_34418" x="44.6736" y="22.0991" width="116.995" height="139.742" filterUnits="userSpaceOnUse" color-interpolation-filters="sRGB">
<feFlood flood-opacity="0" result="BackgroundImageFix"/>
<feColorMatrix in="SourceAlpha" type="matrix" values="0 0 0 0 0 0 0 0 0 0 0 0 0 0 0 0 0 0 127 0" result="hardAlpha"/>
<feOffset dy="4"/>
<feGaussianBlur stdDeviation="8"/>
<feComposite in2="hardAlpha" operator="out"/>
<feColorMatrix type="matrix" values="0 0 0 0 0 0 0 0 0 0.156168 0 0 0 0 0.354167 0 0 0 0.25 0"/>
<feBlend mode="normal" in2="BackgroundImageFix" result="effect1_dropShadow_6847_34418"/>
<feBlend mode="normal" in="SourceGraphic" in2="effect1_dropShadow_6847_34418" result="shape"/>
</filter>
<filter id="filter2_d_6847_34418" x="1" y="53" width="186" height="122" filterUnits="userSpaceOnUse" color-interpolation-filters="sRGB">
<feFlood flood-opacity="0" result="BackgroundImageFix"/>
<feColorMatrix in="SourceAlpha" type="matrix" values="0 0 0 0 0 0 0 0 0 0 0 0 0 0 0 0 0 0 127 0" result="hardAlpha"/>
<feOffset dy="4"/>
<feGaussianBlur stdDeviation="8"/>
<feComposite in2="hardAlpha" operator="out"/>
<feColorMatrix type="matrix" values="0 0 0 0 0.5875 0 0 0 0 0.156404 0 0 0 0 0.0744168 0 0 0 0.25 0"/>
<feBlend mode="normal" in2="BackgroundImageFix" result="effect1_dropShadow_6847_34418"/>
<feBlend mode="normal" in="SourceGraphic" in2="effect1_dropShadow_6847_34418" result="shape"/>
</filter>
</defs>
</svg>
