<svg width="189" height="208" viewBox="0 0 189 208" fill="none" xmlns="http://www.w3.org/2000/svg">
<circle opacity="0.7" cx="94" cy="94" r="94" fill="#EDEDED"/>
<circle cx="72" cy="36" r="4" fill="#EDEDED"/>
<circle cx="180" cy="40" r="5" fill="#EDEDED"/>
<circle cx="186" cy="29" r="2" fill="#EDEDED"/>
<circle cx="8.5" cy="169.5" r="8.5" fill="#EDEDED"/>
<circle cx="11" cy="49" r="5" fill="#EDEDED"/>
<rect x="28" y="51.2182" width="126" height="78.8327" rx="4" fill="#C6C6C6"/>
<g filter="url(#filter0_d_6847_34853)">
<rect width="81.997" height="105.779" rx="2" transform="matrix(0.991365 -0.131129 0.131676 0.991293 33.4116 31.7521)" fill="white"/>
</g>
<rect width="11.2746" height="2.03422" rx="1.01711" transform="matrix(0.991365 -0.131129 0.131676 0.991293 57.7048 90.0964)" fill="#C6C6C6"/>
<rect width="24.5991" height="2.03422" rx="1.01711" transform="matrix(0.991365 -0.131129 0.131676 0.991293 65.03 82.9713)" fill="#C6C6C6"/>
<rect width="16.3994" height="2.03422" rx="1.01711" transform="matrix(0.991365 -0.131129 0.131676 0.991293 55.4597 96.5422)" fill="#EDEDED"/>
<rect width="16.3994" height="2.03422" rx="1.01711" transform="matrix(0.991365 -0.131129 0.131676 0.991293 73.7512 94.1329)" fill="#706F6F"/>
<rect width="10.2496" height="2.03422" rx="1.01711" transform="matrix(0.991365 -0.131129 0.131676 0.991293 102.202 90.3718)" fill="#C6C6C6"/>
<rect width="16.3994" height="2.03422" rx="1.01711" transform="matrix(0.991365 -0.131129 0.131676 0.991293 93.2694 85.3977)" fill="#706F6F"/>
<rect width="8.1997" height="2.03422" rx="1.01711" transform="matrix(0.991365 -0.131129 0.131676 0.991293 92.0403 91.7095)" fill="#EDEDED"/>
<path d="M33.675 33.7347C33.5295 32.6398 34.2993 31.6347 35.3944 31.4899L112.718 21.2622C113.813 21.1174 114.819 21.8876 114.964 22.9826L116.04 31.0825L34.7509 41.8347L33.675 33.7347Z" fill="#C6C6C6"/>
<ellipse rx="1.02496" ry="1.01711" transform="matrix(0.991365 -0.131129 0.131676 0.991293 104.192 27.5109)" fill="#706F6F"/>
<ellipse rx="1.02496" ry="1.01711" transform="matrix(0.991365 -0.131129 0.131676 0.991293 107.242 27.1227)" fill="#706F6F"/>
<ellipse rx="1.02496" ry="1.01711" transform="matrix(0.991365 -0.131129 0.131676 0.991293 110.291 26.7257)" fill="#706F6F"/>
<rect width="2.04993" height="2.03422" rx="1" transform="matrix(0.991365 -0.131129 0.131676 0.991293 59.572 65.2361)" fill="#C6C6C6"/>
<rect width="2.04993" height="2.03422" rx="1" transform="matrix(0.991365 -0.131129 0.131676 0.991293 64.3934 101.528)" fill="#706F6F"/>
<rect width="2.04993" height="2.03422" rx="1" transform="matrix(0.991365 -0.131129 0.131676 0.991293 104.824 102.32)" fill="#C6C6C6"/>
<rect width="2.04993" height="2.03422" rx="1" transform="matrix(0.991365 -0.131129 0.131676 0.991293 51.3958 97.0885)" fill="#706F6F"/>
<rect width="2.04993" height="2.03422" rx="1" transform="matrix(0.991365 -0.131129 0.131676 0.991293 70.9138 88.341)" fill="#706F6F"/>
<rect width="16.3994" height="2.03422" rx="1" transform="matrix(0.991365 -0.131129 0.131676 0.991293 63.636 64.6898)" fill="#C6C6C6"/>
<rect width="16.3994" height="2.03422" rx="1" transform="matrix(0.991365 -0.131129 0.131676 0.991293 80.484 74.7692)" fill="#706F6F"/>
<rect width="16.3994" height="2.03422" rx="1" transform="matrix(0.991365 -0.131129 0.131676 0.991293 97.5459 78.6691)" fill="#EDEDED"/>
<rect width="16.3994" height="2.03422" rx="1" transform="matrix(0.991365 -0.131129 0.131676 0.991293 68.4565 100.982)" fill="#EDEDED"/>
<rect width="16.3994" height="2.03422" rx="1" transform="matrix(0.991365 -0.131129 0.131676 0.991293 86.535 104.752)" fill="#EDEDED"/>
<rect width="13.3245" height="2.03422" rx="1" transform="matrix(0.991365 -0.131129 0.131676 0.991293 103.006 96.4205)" fill="#EDEDED"/>
<rect width="16.3994" height="2.03422" rx="1" transform="matrix(0.991365 -0.131129 0.131676 0.991293 74.9781 87.8079)" fill="#EDEDED"/>
<rect width="4.09985" height="2.03422" rx="1" transform="matrix(0.991365 -0.131129 0.131676 0.991293 81.9276 62.2813)" fill="#C6C6C6"/>
<rect width="4.09985" height="2.03422" rx="1" transform="matrix(0.991365 -0.131129 0.131676 0.991293 86.7479 98.5721)" fill="#C6C6C6"/>
<rect width="16.3994" height="2.03422" rx="1" transform="matrix(0.991365 -0.131129 0.131676 0.991293 43.9514 48.829)" fill="#C6C6C6"/>
<rect width="24.5991" height="2.03422" rx="1" transform="matrix(0.991365 -0.131129 0.131676 0.991293 62.2402 46.3986)" fill="#C6C6C6"/>
<rect width="24.5991" height="2.03422" rx="1" transform="matrix(0.991365 -0.131129 0.131676 0.991293 77.2695 50.5681)" fill="#C6C6C6"/>
<rect width="16.3994" height="2.03422" rx="1" transform="matrix(0.991365 -0.131129 0.131676 0.991293 59.6917 120.618)" fill="#706F6F"/>
<rect width="8.1997" height="2.03422" rx="1" transform="matrix(0.991365 -0.131129 0.131676 0.991293 44.7544 54.8738)" fill="#C6C6C6"/>
<rect width="8.1997" height="2.03422" rx="1" transform="matrix(0.991365 -0.131129 0.131676 0.991293 98.7737 72.3494)" fill="#C6C6C6"/>
<rect width="8.1997" height="2.03422" rx="1" transform="matrix(0.991365 -0.131129 0.131676 0.991293 92.8453 97.7675)" fill="#EDEDED"/>
<rect width="8.1997" height="2.03422" rx="1" transform="matrix(0.991365 -0.131129 0.131676 0.991293 88.6587 42.9019)" fill="#EDEDED"/>
<rect width="16.3994" height="2.03422" rx="1" transform="matrix(0.991365 -0.131129 0.131676 0.991293 57.7502 59.3024)" fill="#EDEDED"/>
<rect width="16.3994" height="2.03422" rx="1" transform="matrix(0.991365 -0.131129 0.131676 0.991293 80.1082 56.367)" fill="#EDEDED"/>
<rect width="8.1997" height="2.03422" rx="1" transform="matrix(0.991365 -0.131129 0.131676 0.991293 58.887 114.563)" fill="#C6C6C6"/>
<rect width="20.4993" height="2.03422" rx="1" transform="matrix(0.991365 -0.131129 0.131676 0.991293 54.9159 53.5343)" fill="#EDEDED"/>
<rect width="20.4993" height="2.03422" rx="1" transform="matrix(0.991365 -0.131129 0.131676 0.991293 69.0475 113.212)" fill="#EDEDED"/>
<rect width="20.4993" height="2.03422" rx="1" transform="matrix(0.991365 -0.131129 0.131676 0.991293 77.9805 118.193)" fill="#EDEDED"/>
<rect width="2.04993" height="2.03422" rx="1" transform="matrix(0.991365 -0.131129 0.131676 0.991293 100.335 115.239)" fill="#C6C6C6"/>
<rect width="6.14977" height="2.03422" rx="1" transform="matrix(0.991365 -0.131129 0.131676 0.991293 104.4 114.702)" fill="#C6C6C6"/>
<rect width="8.1997" height="2.03422" rx="1" transform="matrix(0.991365 -0.131129 0.131676 0.991293 91.4031 110.269)" fill="#706F6F"/>
<rect width="4.09985" height="2.03422" rx="1" transform="matrix(0.991365 -0.131129 0.131676 0.991293 51.6565 60.1298)" fill="#C6C6C6"/>
<rect width="4.09985" height="2.03422" rx="1" transform="matrix(0.991365 -0.131129 0.131676 0.991293 98.8197 41.5589)" fill="#C6C6C6"/>
<rect width="2.04993" height="2.03422" rx="1" transform="matrix(0.991365 -0.131129 0.131676 0.991293 76.0416 56.8931)" fill="#C6C6C6"/>
<rect width="11.2746" height="2.03422" rx="1" transform="matrix(0.991365 -0.131129 0.131676 0.991293 46.3635 66.9836)" fill="#C6C6C6"/>
<rect width="11.2746" height="2.03422" rx="1" transform="matrix(0.991365 -0.131129 0.131676 0.991293 51.183 103.269)" fill="#C6C6C6"/>
<rect width="16.3994" height="2.03422" rx="1" transform="matrix(0.991365 -0.131129 0.131676 0.991293 52.2446 72.3428)" fill="#EDEDED"/>
<rect width="16.3994" height="2.03422" rx="1" transform="matrix(0.991365 -0.131129 0.131676 0.991293 101.565 108.93)" fill="#C6C6C6"/>
<rect width="16.3994" height="2.03422" rx="1" transform="matrix(0.991365 -0.131129 0.131676 0.991293 80.6987 68.6002)" fill="#EDEDED"/>
<rect width="13.3245" height="2.03422" rx="1" transform="matrix(0.991365 -0.131129 0.131676 0.991293 98.1832 60.1166)" fill="#706F6F"/>
<rect width="24.5991" height="2.03422" rx="1" transform="matrix(0.991365 -0.131129 0.131676 0.991293 47.9681 79.0652)" fill="#EDEDED"/>
<rect width="24.5991" height="2.03422" rx="1" transform="matrix(0.991365 -0.131129 0.131676 0.991293 54.0192 109.054)" fill="#EDEDED"/>
<rect width="4.09985" height="2.03422" rx="1" transform="matrix(0.991365 -0.131129 0.131676 0.991293 74.3872 75.5729)" fill="#EDEDED"/>
<rect width="4.09985" height="2.03422" rx="1" transform="matrix(0.991365 -0.131129 0.131676 0.991293 80.4386 105.563)" fill="#706F6F"/>
<rect width="4.09985" height="2.03422" rx="1" transform="matrix(0.991365 -0.131129 0.131676 0.991293 53.5942 121.418)" fill="#706F6F"/>
<rect width="4.09985" height="2.03422" rx="1" transform="matrix(0.991365 -0.131129 0.131676 0.991293 48.774 85.1338)" fill="#706F6F"/>
<rect width="4.09985" height="2.03422" rx="1" transform="matrix(0.991365 -0.131129 0.131676 0.991293 91.4485 79.4745)" fill="#C6C6C6"/>
<rect width="8.1997" height="2.03422" rx="1" transform="matrix(0.991365 -0.131129 0.131676 0.991293 54.8684 84.3099)" fill="#C6C6C6"/>
<rect width="8.1997" height="2.03422" rx="1" transform="matrix(0.991365 -0.131129 0.131676 0.991293 70.5342 69.9221)" fill="#C6C6C6"/>
<rect width="8.1997" height="2.03422" rx="1" transform="matrix(0.991365 -0.131129 0.131676 0.991293 88.0209 61.4513)" fill="#C6C6C6"/>
<g filter="url(#filter1_d_6847_34853)">
<rect width="79.9996" height="103.78" rx="2" transform="matrix(0.998707 0.0508305 -0.0510459 0.998696 65.8719 33.2563)" fill="white"/>
</g>
<path d="M80.622 89.4615L74.9529 90.6717L130.88 93.5182L132.102 69.6001L129.153 72.4475L123.484 73.6578L119.137 76.4341L109.273 77.4308L100.808 78.4987L93.5112 84.1224L86.4439 85.2615L80.622 89.4615Z" fill="#706F6F"/>
<path d="M109.121 80.4205L100.579 82.9833L93.435 85.6173L87.7659 86.8275L83.3803 90.3512L80.5458 90.9563L130.88 93.5182L131.95 72.5898L128.924 76.9322L123.255 78.1424L118.908 80.9187L109.121 80.4205Z" fill="#EDEDED"/>
<path d="M93.3588 87.1122L83.3424 91.0987L130.88 93.5182L131.492 81.5592L128.542 84.4066L122.95 84.122L118.679 85.4034L108.892 84.9052L100.426 85.9731L93.3588 87.1122Z" fill="#C6C6C6"/>
<rect width="21.9999" height="3.99155" rx="1.99578" transform="matrix(0.998707 0.0508305 -0.0510459 0.998696 77.2451 45.8253)" fill="#C6C6C6"/>
<rect width="55.9997" height="1.99578" rx="0.997888" transform="matrix(0.998707 0.0508305 -0.0510459 0.998696 76.8376 53.798)" fill="#EDEDED"/>
<rect width="52.9997" height="1.99578" rx="0.997888" transform="matrix(0.998707 0.0508305 -0.0510459 0.998696 76.6339 57.7843)" fill="#EDEDED"/>
<rect width="24.9999" height="1.99578" rx="0.997888" transform="matrix(0.998707 0.0508305 -0.0510459 0.998696 76.4301 61.7707)" fill="#EDEDED"/>
<ellipse rx="11.9999" ry="11.9747" transform="matrix(0.998707 0.0508305 -0.0510459 0.998696 85.8166 113.207)" fill="#EDEDED"/>
<path fill-rule="evenodd" clip-rule="evenodd" d="M97.8011 113.817C98.1387 107.212 93.0468 101.584 86.428 101.248L85.8167 113.207L97.8011 113.817Z" fill="#706F6F"/>
<path fill-rule="evenodd" clip-rule="evenodd" d="M97.8011 113.817C97.682 116.145 96.9041 118.284 95.6567 120.063L85.8167 113.207L97.8011 113.817Z" fill="#C6C6C6"/>
<ellipse rx="7.49996" ry="7.48416" transform="matrix(0.998707 0.0508305 -0.0510459 0.998696 85.8171 113.207)" fill="white"/>
<ellipse rx="0.999995" ry="0.997888" transform="matrix(0.998707 0.0508305 -0.0510459 0.998696 104.741 115.169)" fill="#C6C6C6"/>
<ellipse rx="0.999995" ry="0.997888" transform="matrix(0.998707 0.0508305 -0.0510459 0.998696 105.047 109.189)" fill="#C6C6C6"/>
<ellipse rx="0.999995" ry="0.997888" transform="matrix(0.998707 0.0508305 -0.0510459 0.998696 104.435 121.149)" fill="#C6C6C6"/>
<rect width="21.9999" height="1.99578" rx="0.997888" transform="matrix(0.998707 0.0508305 -0.0510459 0.998696 108.094 108.345)" fill="#EDEDED"/>
<rect width="21.9999" height="1.99578" rx="0.997888" transform="matrix(0.998707 0.0508305 -0.0510459 0.998696 107.788 114.325)" fill="#EDEDED"/>
<rect width="21.9999" height="1.99578" rx="0.997888" transform="matrix(0.998707 0.0508305 -0.0510459 0.998696 107.482 120.304)" fill="#EDEDED"/>
<g filter="url(#filter2_d_6847_34853)">
<path d="M17.3696 95.7922C19.046 104.108 24.2275 134.043 25.7515 143.19C27.2754 152.337 32.9598 154 38.3242 154H147.288C147.288 154 155.669 154 157.346 145.685C159.016 137.398 169.012 82.8612 170.739 73.4358L170.757 73.3407C172.128 65.8568 167.404 64.1937 164.051 64.1937H113.76C112.084 64.1937 109.249 63.9596 104.54 67.5199C100.309 70.7198 85.403 81.6017 82.4283 83.7722C82.0861 84.0219 81.6976 84.1507 81.274 84.1507H26.5896C19.8842 84.1507 15.6933 87.4769 17.3696 95.7922Z" fill="#EDEDED"/>
</g>
<ellipse cx="79.5" cy="112" rx="4.5" ry="5" fill="#706F6F"/>
<path d="M121.362 101.371C121.709 102.123 121.381 103.014 120.629 103.362C119.877 103.709 118.986 103.381 118.638 102.629L121.362 101.371ZM110.134 98.0425C109.305 98.0629 108.617 97.408 108.597 96.5798C108.577 95.7517 109.232 95.0638 110.06 95.0435L110.134 98.0425ZM116 98L116.783 96.7207L116 98ZM120 102C118.638 102.629 118.639 102.63 118.639 102.63C118.639 102.631 118.639 102.631 118.639 102.631C118.64 102.632 118.64 102.633 118.64 102.633C118.641 102.635 118.641 102.636 118.642 102.637C118.643 102.638 118.643 102.64 118.644 102.641C118.645 102.642 118.645 102.642 118.643 102.64C118.641 102.636 118.635 102.624 118.625 102.605C118.605 102.567 118.569 102.501 118.515 102.412C118.406 102.233 118.226 101.962 117.96 101.634C117.429 100.979 116.554 100.098 115.217 99.2793L116.783 96.7207C118.446 97.7386 119.571 98.8578 120.29 99.7437C120.649 100.186 120.906 100.57 121.079 100.855C121.165 100.997 121.231 101.114 121.277 101.202C121.3 101.246 121.319 101.282 121.333 101.31C121.34 101.325 121.346 101.337 121.35 101.347C121.353 101.352 121.355 101.356 121.357 101.36C121.358 101.362 121.359 101.364 121.359 101.366C121.36 101.367 121.36 101.368 121.361 101.368C121.361 101.369 121.361 101.369 121.361 101.369C121.361 101.37 121.362 101.371 120 102ZM115.217 99.2793C114.203 98.6586 112.952 98.3354 111.886 98.1778C111.364 98.1007 110.914 98.0669 110.597 98.0525C110.439 98.0453 110.316 98.043 110.236 98.0424C110.196 98.0421 110.167 98.0422 110.149 98.0424C110.14 98.0425 110.135 98.0425 110.132 98.0426C110.131 98.0426 110.13 98.0426 110.13 98.0426C110.131 98.0426 110.131 98.0426 110.131 98.0426C110.132 98.0426 110.132 98.0426 110.132 98.0426C110.132 98.0426 110.133 98.0426 110.133 98.0426C110.133 98.0426 110.134 98.0425 110.097 96.543C110.06 95.0435 110.06 95.0434 110.061 95.0434C110.061 95.0434 110.061 95.0434 110.061 95.0434C110.062 95.0434 110.063 95.0434 110.063 95.0434C110.065 95.0433 110.066 95.0433 110.068 95.0433C110.071 95.0432 110.076 95.0431 110.081 95.043C110.091 95.0428 110.105 95.0427 110.122 95.0425C110.155 95.0422 110.201 95.042 110.258 95.0425C110.373 95.0433 110.534 95.0465 110.734 95.0556C111.131 95.0737 111.684 95.1154 112.324 95.21C113.581 95.3958 115.281 95.8012 116.783 96.7207L115.217 99.2793Z" fill="#706F6F"/>
<ellipse cx="112.5" cy="112" rx="4.5" ry="5" fill="#706F6F"/>
<ellipse cx="96" cy="129" rx="7" ry="4" fill="#706F6F"/>
<path d="M70.7532 101.371C70.4056 102.123 70.7334 103.014 71.4853 103.362C72.2373 103.709 73.1287 103.381 73.4763 102.629L70.7532 101.371ZM81.9812 98.0425C82.8094 98.0629 83.4973 97.408 83.5176 96.5798C83.538 95.7517 82.8831 95.0638 82.0549 95.0435L81.9812 98.0425ZM76.1147 98L75.3315 96.7207L76.1147 98ZM72.1147 102C73.4763 102.629 73.4761 102.63 73.4758 102.63C73.4757 102.631 73.4755 102.631 73.4753 102.631C73.475 102.632 73.4747 102.633 73.4745 102.633C73.4739 102.635 73.4734 102.636 73.473 102.637C73.4721 102.638 73.4714 102.64 73.471 102.641C73.4702 102.642 73.4702 102.642 73.4713 102.64C73.4734 102.636 73.4793 102.624 73.4894 102.605C73.5094 102.567 73.5456 102.501 73.5999 102.412C73.7085 102.233 73.8886 101.962 74.1546 101.634C74.6859 100.979 75.5606 100.098 76.898 99.2793L75.3315 96.7207C73.6689 97.7386 72.5436 98.8578 71.8249 99.7437C71.4659 100.186 71.2085 100.57 71.0359 100.855C70.9495 100.997 70.8842 101.114 70.8378 101.202C70.8146 101.246 70.7961 101.282 70.7821 101.31C70.7751 101.325 70.7692 101.337 70.7644 101.347C70.762 101.352 70.7599 101.356 70.758 101.36C70.7571 101.362 70.7562 101.364 70.7554 101.366C70.755 101.367 70.7546 101.368 70.7542 101.368C70.7541 101.369 70.7538 101.369 70.7537 101.369C70.7534 101.37 70.7532 101.371 72.1147 102ZM76.898 99.2793C77.9118 98.6586 79.1629 98.3354 80.2292 98.1778C80.7504 98.1007 81.201 98.0669 81.5177 98.0525C81.6755 98.0453 81.7986 98.043 81.8789 98.0424C81.9189 98.0421 81.9482 98.0422 81.9656 98.0424C81.9743 98.0425 81.9801 98.0425 81.9827 98.0426C81.9841 98.0426 81.9846 98.0426 81.9844 98.0426C81.9842 98.0426 81.9839 98.0426 81.9834 98.0426C81.9831 98.0426 81.9828 98.0426 81.9825 98.0426C81.9823 98.0426 81.982 98.0426 81.9819 98.0426C81.9816 98.0426 81.9812 98.0425 82.0181 96.543C82.0549 95.0435 82.0546 95.0434 82.0542 95.0434C82.054 95.0434 82.0537 95.0434 82.0534 95.0434C82.0528 95.0434 82.0522 95.0434 82.0515 95.0434C82.0502 95.0433 82.0486 95.0433 82.0469 95.0433C82.0433 95.0432 82.039 95.0431 82.0338 95.043C82.0235 95.0428 82.0099 95.0427 81.9932 95.0425C81.9598 95.0422 81.9138 95.042 81.8563 95.0425C81.7415 95.0433 81.5803 95.0465 81.3812 95.0556C80.9841 95.0737 80.4305 95.1154 79.7904 95.21C78.534 95.3958 76.8334 95.8012 75.3315 96.7207L76.898 99.2793Z" fill="#706F6F"/>
<path fill-rule="evenodd" clip-rule="evenodd" d="M129.213 147.774C147.958 129.029 147.958 98.6368 129.213 79.8916C110.468 61.1464 80.0761 61.1464 61.3309 79.8916C42.5857 98.6368 42.5857 129.029 61.3309 147.774C80.0761 166.519 110.468 166.519 129.213 147.774ZM123.556 142.117C139.177 126.496 139.177 101.169 123.556 85.5485C107.935 69.9275 82.6087 69.9275 66.9877 85.5485C51.3668 101.169 51.3668 126.496 66.9877 142.117C82.6087 157.738 107.935 157.738 123.556 142.117Z" fill="#706F6F"/>
<rect x="121.435" y="145.653" width="8" height="43" rx="4" transform="rotate(-45 121.435 145.653)" fill="#706F6F"/>
<defs>
<filter id="filter0_d_6847_34853" x="17.6573" y="9.24475" width="126.726" height="147.121" filterUnits="userSpaceOnUse" color-interpolation-filters="sRGB">
<feFlood flood-opacity="0" result="BackgroundImageFix"/>
<feColorMatrix in="SourceAlpha" type="matrix" values="0 0 0 0 0 0 0 0 0 0 0 0 0 0 0 0 0 0 127 0" result="hardAlpha"/>
<feOffset dy="4"/>
<feGaussianBlur stdDeviation="8"/>
<feComposite in2="hardAlpha" operator="out"/>
<feColorMatrix type="matrix" values="0 0 0 0 0 0 0 0 0 0.156863 0 0 0 0 0.352941 0 0 0 0.25 0"/>
<feBlend mode="normal" in2="BackgroundImageFix" result="effect1_dropShadow_6847_34853"/>
<feBlend mode="normal" in="SourceGraphic" in2="effect1_dropShadow_6847_34853" result="shape"/>
</filter>
<filter id="filter1_d_6847_34853" x="44.6738" y="21.3553" width="116.995" height="139.513" filterUnits="userSpaceOnUse" color-interpolation-filters="sRGB">
<feFlood flood-opacity="0" result="BackgroundImageFix"/>
<feColorMatrix in="SourceAlpha" type="matrix" values="0 0 0 0 0 0 0 0 0 0 0 0 0 0 0 0 0 0 127 0" result="hardAlpha"/>
<feOffset dy="4"/>
<feGaussianBlur stdDeviation="8"/>
<feComposite in2="hardAlpha" operator="out"/>
<feColorMatrix type="matrix" values="0 0 0 0 0 0 0 0 0 0.156168 0 0 0 0 0.354167 0 0 0 0.25 0"/>
<feBlend mode="normal" in2="BackgroundImageFix" result="effect1_dropShadow_6847_34853"/>
<feBlend mode="normal" in="SourceGraphic" in2="effect1_dropShadow_6847_34853" result="shape"/>
</filter>
<filter id="filter2_d_6847_34853" x="1" y="52.1906" width="186" height="121.809" filterUnits="userSpaceOnUse" color-interpolation-filters="sRGB">
<feFlood flood-opacity="0" result="BackgroundImageFix"/>
<feColorMatrix in="SourceAlpha" type="matrix" values="0 0 0 0 0 0 0 0 0 0 0 0 0 0 0 0 0 0 127 0" result="hardAlpha"/>
<feOffset dy="4"/>
<feGaussianBlur stdDeviation="8"/>
<feComposite in2="hardAlpha" operator="out"/>
<feColorMatrix type="matrix" values="0 0 0 0 0.3125 0 0 0 0 0.3125 0 0 0 0 0.3125 0 0 0 0.33 0"/>
<feBlend mode="normal" in2="BackgroundImageFix" result="effect1_dropShadow_6847_34853"/>
<feBlend mode="normal" in="SourceGraphic" in2="effect1_dropShadow_6847_34853" result="shape"/>
</filter>
</defs>
</svg>
